<svg xmlns="http://www.w3.org/2000/svg" viewBox="0 0 259.03 224.96"><defs><style>.cls-1{fill:#131f45;}.cls-1,.cls-10,.cls-11,.cls-12,.cls-14,.cls-15,.cls-2,.cls-5,.cls-6,.cls-7,.cls-8,.cls-9{fill-rule:evenodd;}.cls-2{fill:#007d84;}.cls-12,.cls-3{fill:#231f20;}.cls-4,.cls-6{fill:#191919;}.cls-5{fill:#d3a68e;}.cls-16,.cls-7{fill:#fff;}.cls-8{fill:#9eabaf;}.cls-9{fill:#a97c50;}.cls-10,.cls-13{fill:#f58120;}.cls-11{fill:#603913;}.cls-14{fill:#fedab5;}.cls-15{fill:#f3ede5;}</style></defs><g id="Layer_2" data-name="Layer 2"><g id="Layer_1-2" data-name="Layer 1"><path class="cls-1" d="M34.12,153.9v63.54a2.27,2.27,0,0,1-2.27,2.27h-3.5a2.27,2.27,0,0,1-2.27-2.27V153.9a2.27,2.27,0,0,1,2.27-2.27h3.5A2.27,2.27,0,0,1,34.12,153.9Z"/><path class="cls-1" d="M43.77,223v.83a.21.21,0,0,1-.21.22H16.64a.21.21,0,0,1-.21-.22V223A7.56,7.56,0,0,1,24,215.4H36.2A7.57,7.57,0,0,1,43.77,223Z"/><path class="cls-1" d="M4.73,150.12c0,1.93,2.23,5.72,4.16,5.72h52.9c1.93,0,3.69-2.89,3.69-4.82s-1.76-2.18-3.69-2.18H8.89C7,148.84,4.73,148.19,4.73,150.12Z"/><path class="cls-2" d="M69.21,129.58v14.34A7.09,7.09,0,0,1,62.12,151H7.8a7.1,7.1,0,0,1-7.09-7.09V129.58c0-3.92.49-16,1.94-23.42S5.8,92,18.4,93.25,69.21,125.66,69.21,129.58Z"/><path class="cls-3" d="M62.12,151.72H7.81A7.81,7.81,0,0,1,0,143.92V129.58C0,126,.46,113.7,2,106c1.35-7,2.88-14.82,16.52-13.49,12.71,1.25,51.45,32.62,51.45,37v14.34A7.81,7.81,0,0,1,62.12,151.72ZM15.54,93.81c-9.77,0-10.95,6.08-12.19,12.49C1.88,113.87,1.42,126,1.42,129.58v14.34a6.39,6.39,0,0,0,6.39,6.38H62.12a6.38,6.38,0,0,0,6.38-6.38V129.58C68.27,126.34,31.35,95.23,18.33,94,17.33,93.85,16.4,93.81,15.54,93.81Z"/><path class="cls-4" d="M30.85,134.83h-.1a22.07,22.07,0,0,0-3.33-.17h-.28c-5.26.09-6.84.12-11.56-1.74-3.47-1.37-3.81-4.94-4.28-9.89-.11-1.18-.23-2.47-.41-3.86a54.65,54.65,0,0,0-2.19-9.22.71.71,0,1,1,1.35-.46A55.68,55.68,0,0,1,12.3,119c.18,1.4.3,2.7.42,3.9.45,4.77.72,7.64,3.38,8.7,4.46,1.76,5.72,1.74,11,1.64h.27a22.54,22.54,0,0,1,3.57.19.71.71,0,0,1-.11,1.41Z"/><path class="cls-4" d="M186,106.91c-5.51,0-10.75-1.51-16.64-3.51A293.75,293.75,0,0,1,137,90.29l-.78-.37c-6.87-3.24-13-7.7-18.31-11.64-9.34-6.85-17.4-12.76-25.92-9.75-30.26,10.67-68.8,3.23-74-7.15a8.77,8.77,0,0,1,.43-9.21c6.73-10.12,33.75-14.61,56-13.1,25.24,1.72,49.65-.23,62.19-5a44.86,44.86,0,0,0,9.78-5.43c5.36-3.64,9.6-6.53,16.86-1.9,5.57,3.56,12.13,5.54,19.07,7.63C193,37.66,204.13,41,212.56,50.69c7.38,8.47,10.82,18.14,9.69,27.22-1,8-5.46,15-12.91,20.2C200,104.62,192.74,106.91,186,106.91ZM96.68,65.58c7.47,0,14.52,5.17,22.44,11,5.55,4.07,11.28,8.28,18,11.43l.79.37a291.55,291.55,0,0,0,32.13,13c12.53,4.25,21.95,6.2,38.13-5,6.93-4.81,11.09-11.28,12-18.71,1.06-8.47-2.21-17.55-9.18-25.56-8-9.21-18.86-12.48-29.33-15.63-7.08-2.14-13.77-4.16-19.6-7.87-6.08-3.88-9.25-1.72-14.52,1.86a46.61,46.61,0,0,1-10.22,5.66c-13,4.9-37.17,6.85-63.09,5.08C49.94,39.55,25.68,45,20.13,53.35a6.56,6.56,0,0,0-.3,7.08C24.11,69,60.66,77.31,91.24,66.52A16.23,16.23,0,0,1,96.68,65.58Z"/><path class="cls-5" d="M255.55,64.37c-1.84-16.84-2.73-20-5.82-23.72-.12-.14-.26-.28-.41-.43C245.81,36.94,236,36.88,236,36.88a34.75,34.75,0,0,1-4-4c-1-1.44-.41-8.08-.41-8.08s2.28.11,3.39-2.75a4.14,4.14,0,0,0,0-3l0-1.32v0l.06-2.91v0l.08,0h0l.33-.21h0A2.23,2.23,0,0,0,236,14c.2-.3.4-1.35.18-3.36a26,26,0,0,0-.47-2.75c-.82-3.74-4.41-5.12-7.79-5.95a2.27,2.27,0,0,1-.25-.06c-3.33-.79-13.27,1.87-14.93,3a.2.2,0,0,1-.09,0l-.07.06A2.88,2.88,0,0,0,212,7.17h0c.09,1.49.74,3.15,1.72,3.45a1.12,1.12,0,0,0,.41,0h0l-1,2.56.29,1.08v.47l0,2-.06,5.65s-.39,1.16-.8,2.64a0,0,0,0,0,0,0,21.72,21.72,0,0,0-1,5.36,1.72,1.72,0,0,0,.18.86c2,3.5,10.88,2.41,10.88,2.41l.49,1.37-1.6,1.94a76,76,0,0,0-9.89,2,21,21,0,0,0-4.31,2.36c-1.14.74-2.23,1.51-3,2.11l-1.38,1.06-.37.34-12.13,11,0-.09-4.64-18.11-.62-2.43-.22-.83s-.62-7.41-2.5-10.94-12-.38-12.33-.19c-1.46.76-.09,1.62.28,2.27s6.29-.94,6.81.48a6.41,6.41,0,0,0-3,3.9,1.17,1.17,0,0,1-1,.53,9.4,9.4,0,0,0-2,.23,4.72,4.72,0,0,0-1.21.39c-.43.32-.31,1,.59,1.65h0l.27.17c2.77,1.49,2.37,2.87,3.61,4.58a13.72,13.72,0,0,0,3.39,3,143.86,143.86,0,0,0-.17,15.11c0,.85.09,1.7.16,2.54a46.69,46.69,0,0,0,1.31,7.37c.07.26.13.5.21.74l.09.37c0,.14.09.29.13.43s.12.41.18.58c.15.43.27.78.36,1s.1.2.14.3c1,1.82,3.09,2.3,4.81,2.34a11.25,11.25,0,0,0,2.66-.23l9.39-4,.56-.24.38-.16.51-.21h0c.14-.07.3-.13.45-.19l8.7-3.67-.34,17.08-.16,8.89,0,.43-.09,5.35v1.45l0,1.24L207,99.69l-.19,10,0,1.63,0,1.73,0,1.41-.14,7.44,0,.59v.79l-.43,22.85v1.44l-.09,4.47v1.19L205.73,166v1.92l0,.55v.8l0,1.27-.12,6.2v.7l0,.72,0,1.84-.22,11.77-.3,15.72v.06l.64.21,1.06.36s0,.31-.09.79c-.11.88-.28,2.33-.36,3.26a.34.34,0,0,0,0,.1c0,.21,0,.4-.05.53a.85.85,0,0,1-.15.37,3.11,3.11,0,0,1-.47.64.75.75,0,0,1,.13.06l.21.09c.55,0,1.09,0,1.64,0l1.17,0h.08c1.69,0,3.35-.08,5-.07,1.24,0,2.47,0,3.72.17l.29,0h.14l.41,0v0l0-.32,0-1.1,0-.49.19-3.88,0-.41,1.85.48L221.63,180l0-.35.06-1.49,0-.72,0-.7.05-1,0-.9.06-1.62a.15.15,0,0,0,0-.06v-.45l.08-2.12,0-.31.12-2.81,0-.72,0-.7.25-6.21.09-2v-.38l.17-4.19,0-.6,0-.59,0-.52v0l0-.46.07-1.88.09-2.06.15.9.16.92.54,3.12.09.59.11.6,2.26,13.21.14.85.17,1,.65,3.91.7,4v.07l.14.83.13.77,5.44,31.82,2.32.24V210l.1,3.71,0,1.12-.13.22a18.23,18.23,0,0,1-2.22,2.9,7.65,7.65,0,0,0-2.33,5.69l20.33-.29-1-7.48-.07-.5L237.62,116l1.56-3.74-1.91-1.55-.74-.61h0l-.31-.25s8-7,13.95-12.51h0c2.11-2,4-3.75,5.12-5a.07.07,0,0,0,0-.05,8.7,8.7,0,0,0,1.86-3C258.82,85.05,257.14,78.83,255.55,64.37ZM232.79,88.62c-.14-.74-.29-1.48-.41-2.22s-.26-1.62-.36-2.38l0-.44a8.15,8.15,0,0,1-.07-.84c0-.23,0-.45,0-.68s0-.35,0-.51a5.24,5.24,0,0,1,.55-2.76c2.05-3,7.85-10.41,7.85-10.41L243.86,85l-9,11.68S233.67,92.81,232.79,88.62ZM232,223a9.48,9.48,0,0,1,3.33-5.68,4.63,4.63,0,0,1,1.18-1,6.76,6.76,0,0,1,1.5-.1,9.15,9.15,0,0,1,3.5.28c1.1.43,2.05,1.79,2.75,2.79.53.77,1.06,2.23,1.7,2.42a8.65,8.65,0,0,0,3.08-.24c.67-.4.7-2.16,1.14-2.7.17,1.35.43,2.89.51,4.17C244.44,222.94,238.28,223,232,223Z"/><path class="cls-6" d="M236,213.73l0,2.08a34.08,34.08,0,0,1,5.77.33c2.3.43,4.4,4.92,4.4,4.92l2.32-.38,2.36-4.87-.71-2.74Z"/><path class="cls-6" d="M205.12,213.16l-1.8,3.55s.78.82,1.85,2.18a5.19,5.19,0,0,1,1.18,2.12l7.29-.09s1.15-1.2,1.75-2A11.84,11.84,0,0,1,218,217l.42-3.26Z"/><path class="cls-2" d="M232.31,78.1c-1,1.47-.05,8-.05,8l-25.21,3,.42-26.16s-17.7,7.27-22.33,8.37-6.54-3.56-6.95-5.63-.81-10.92-.43-10.47.92,2.46,6.37,1.67c4.27-.63,5.36-3.5,5.36-3.5l.71,2.69s6.19-6.1,11.69-11,13.53-6.48,13.53-6.48.84,1.56,1.61,2.79S221.94,45,227.67,44s15.62-6,15.62-6,5.33.8,8.18,4,6.8,34.44,7.1,41.78-8.93,14.37-8.42,13.59.25-3.16-2.66-5.28c-3.3-2.4-5.62-2.69-6.81-1.78s3.93-5.54,3.93-5.54l-4.26-17.69S233.29,76.63,232.31,78.1Z"/><path class="cls-7" d="M230.72,99.22a27.09,27.09,0,0,0,.66,4.12,14.61,14.61,0,0,0,4.59,6.77l3,2.22-1.6,4,12.28,93.32-16,.4-11.32-61.26-1.9,59.56-16.69-.66,3.34-119.08L232.06,86l2.3,10.39Z"/><path class="cls-7" d="M207.61,89.21l-.24,2.17L233,88.59l-.47-2.22Z"/><path class="cls-8" d="M234.81,18.93a30.91,30.91,0,0,0,.52-4.26l-5.77.8-3.31,6.06a10,10,0,0,0-.57,2.27c-.22,1.46-2.08,2-2.08,2l-2.51-2.09c-.94-.78-2.71-.82-5.11-1.23a1.53,1.53,0,0,0-2,1.85l-.8-.71s-1.37,3.36-1.85,5,.91,2.86,2.65,4.07,7.72,1.59,10.93,0,4-5.63,4-5.63l0-3.65,2.12-4.59S234.55,19.51,234.81,18.93Z"/><path class="cls-8" d="M232.39,3C227.51.12,215,4,213.05,4.73s-1,1.95-1,2.84S214,11,214,11l1.09-2.32a18.23,18.23,0,0,0,4.49,1.28c2.47.34,5.39-.14,6.63.28s1.12,2.16,1.65,3.83,3.88,1.35,6.15,1,1.6-1,1.9-2.69S237.28,5.94,232.39,3Z"/><path class="cls-6" d="M258.57,80.26c-.75-6.62-1.63-13.1-2.46-19.73-.55-4.36-1.15-8.72-2-12.77s-2.87-7.23-5.87-8.89A25,25,0,0,0,242.72,37a47.49,47.49,0,0,0-6.38-1c-.56-.06-1.35-.87-1.85-1.33a6.5,6.5,0,0,1-1.65-1.88,13.1,13.1,0,0,1-.77-3.69c-.16-1.32-.31-2.7-.37-4,1.23-.38,2.37-.55,3.12-1.33a4.46,4.46,0,0,0,1.09-3.35c0-.46-.28-.71-.29-1.14a6.09,6.09,0,0,1,.24-1,7.43,7.43,0,0,0,.19-1c.07-.77,0-1.78.14-2.31s.43-.67.57-1.09A13,13,0,0,0,237,8.4a7.52,7.52,0,0,0-2.08-3.87c-2-2-4.79-3-8.76-3.18a30.44,30.44,0,0,0-9.17,1.42A16.39,16.39,0,0,0,213,4.1a3.69,3.69,0,0,0-1.47,3.74,6,6,0,0,0,.66,1.84c.26.56.4,1.13,1,1.42-.29.49-.3.86-.61,1.32s-1.2.57-1.19,1.24,1.21.88,2,1.12l.43.15a2.35,2.35,0,0,1,1.09.89,4.57,4.57,0,0,1,.52,1.34,4.19,4.19,0,0,1,.19,1.56,1.32,1.32,0,0,1-.18.47c-.28.44-.77.73-.82,1.32s.3.66.43,1.19c-.28.19-.69.5-.9.62,0-.76-.31-1.45-.33-2.23a22.3,22.3,0,0,0-.19-3.32.45.45,0,0,0-.26,0c-.56.1-.6.8-.68,1.25a10.42,10.42,0,0,0-.29,1.95c0,.94.43,1.79.38,2.59A8.33,8.33,0,0,1,211.74,25a11.23,11.23,0,0,0-1,2.36,5.59,5.59,0,0,0,3,6.06c2,1.16,5,1.16,8.09.94,0,.32.17.59.14.81,0,.46-1.19,1.53-1.61,1.7a17.61,17.61,0,0,1-2.41.57c-2.39.58-4.85,1.16-7.1,1.84a21.45,21.45,0,0,0-7.25,3.8c-.15.12-.31.24-.45.37l-1.27,1.08c-3.91,3.38-7.49,6.71-11.12,10.27-1.06-5.56-2.52-11.14-3.94-16.71-.21-.81-.41-1.63-.61-2.44-.54-2.16-1.07-4.32-1.56-6.48-.63-2.81-1.44-5.81-3.35-7.2-1.53-1.11-4.46-1-6.78-.57a30.81,30.81,0,0,0-3.21.81c-.64.19-2.39.6-2.6,1.47a2.21,2.21,0,0,0,1.9,2.5c1.81.15,4.28-.75,5.91-.18a4.58,4.58,0,0,0-3,4,5.83,5.83,0,0,0-3.49.33,1.31,1.31,0,0,0-.65,2,7,7,0,0,0,2.63,1.9A5.65,5.65,0,0,1,173.32,36a30.22,30.22,0,0,0,2.09,3.5c.35.47,1.14,1,1.27,1.47a9.63,9.63,0,0,1,0,2.13c.06,5,.19,9.91.38,14.85.11,2.75.31,5.59.66,8a9.65,9.65,0,0,0,.17,1c0,.12.05.24.09.36a3.74,3.74,0,0,0,.12.48c.06.19.12.38.19.56a5.09,5.09,0,0,0,2.65,3,7.11,7.11,0,0,0,2.13.63,11.53,11.53,0,0,0,5.09-.46l.12,0c3.36-1.14,6.51-2.39,9.61-3.68l.61-.25.22-.1.56-.22c2.52-1.07,5-2.13,7.63-3.18,0,10.12-.18,20.14-.44,30.14,0,.14,0,.27,0,.42,0,.32,0,.65,0,1,0,.61,0,1.21-.06,1.82,0,.88,0,1.74-.06,2.6-.09,3.09-.19,6.18-.28,9.28a5.24,5.24,0,0,1,.48.23l.22.1.19-10L207,97.1c.28-.17.55-.36.84-.56,0-.12,0-.25,0-.37,0-.35,0-.71,0-1,0-.11,0-.23,0-.34l.2,0,2.51-.31,3.64-.44c4.72-.58,9.44-1.14,14.13-1.74a32.93,32.93,0,0,0,.52,3.36,52.12,52.12,0,0,0,2.17,9.14,13,13,0,0,0,5,5.79l1,.71c.51.34,1,.7,1.51,1.06-.32.6-.56,1.23-.86,1.89a7.75,7.75,0,0,0-.8,2,17.31,17.31,0,0,0,.38,2.88c3.85,30,7.85,60.37,11.68,90.08l-1,0-1.2,0c-4.12.09-8.27.15-12.37.27q-2.76-15.93-5.63-32.06c-.06-.33-.11-.64-.17-1-.15-.91-.32-1.8-.47-2.71l-.83-4.73a3.7,3.7,0,0,0-.76-.77,3.49,3.49,0,0,0-.67-.4l-.16-.85a.56.56,0,0,0-.19-.07l.15.82.6,3.49c.33,1.82.64,3.64,1,5.47l.12.69c0,.2.07.39.1.59a.43.43,0,0,1,0,.12c1.78,10.25,3.57,20.56,5.42,30.71a5.53,5.53,0,0,0,.37,1.7c.37.54,1,.31,1.95.33.12,1.19.12,2.06.18,3.27a4.08,4.08,0,0,1,0,1.09c-.07.33-.65.71-.85.9-1.82,1.72-3.36,3.39-4,6.43-.13.59-.36,1.51.28,1.8a9.58,9.58,0,0,0,2.6.1c5.08,0,10.77.13,16-.1.93,0,2.29.14,2.59-.24s-.06-2.39-.18-3.35c-2.15-16.73-4.38-33.84-6.58-50.48-2.28-17.25-4.43-34.86-6.76-52.23a9.64,9.64,0,0,1-.24-1.65,11.33,11.33,0,0,1,.94-2.23c.29-.64,1-1.71.85-2.3s-.87-.84-1.26-1.1a16.83,16.83,0,0,1-1.43-1c5.25-4.68,10.39-9.26,15.61-13.95,2.62-2.35,5.41-4.71,5.91-8.89A29.39,29.39,0,0,0,258.57,80.26ZM250.71,223c-6.27,0-12.43.06-18.69.05a9.48,9.48,0,0,1,3.33-5.68,4.63,4.63,0,0,1,1.18-1,6.76,6.76,0,0,1,1.5-.1,9.15,9.15,0,0,1,3.5.28c1.1.43,2.05,1.79,2.75,2.79.53.77,1.06,2.23,1.7,2.42a8.65,8.65,0,0,0,3.08-.24c.67-.4.7-2.16,1.14-2.7C250.37,220.16,250.63,221.7,250.71,223ZM249.57,214c.49,1.63-.18,2.65-.61,3.87-.28.81-.49,1.57-.75,2.32-.52.08-1.13.07-1.66.14-1.5-2.3-2.71-5.07-6.1-5.48a34.79,34.79,0,0,0-3.55,0c-.11-.09,0-.39-.05-.57,4.22-.12,8.46-.22,12.64-.37A.1.1,0,0,1,249.57,214Zm-.41-3.37c.08.61.15,1.23.23,1.85-4.24.09-8.38.27-12.63.34,0-.69-.1-1.48,0-2,4.16,0,8.22-.17,12.35-.24C249.06,210.47,249.19,210.6,249.16,210.67ZM213.58,5.38a9.31,9.31,0,0,1,2.84-1,29.26,29.26,0,0,1,9.83-1.67c4.56.22,8.95,2.06,9.42,6.59a11.85,11.85,0,0,1,0,2.31c0,.48,0,1.65-.37,2s-.9.29-1.42.38c-1.33.2-4,.55-4.93-.1-.82-.55-.7-2.52-1.23-3.5-1.29-2.44-5.31-1-8.23-1.23a17.5,17.5,0,0,1-3.4-.94c-.14-.43-.23-.76-.71-.77-.95,0-1.06,1.76-1.56,2.32C213.07,8.76,212.44,6.31,213.58,5.38Zm.14,8c.64-1.22,1.17-2.55,1.8-3.79,1,.22,2.55,1,4.31,1.05s3.34-.37,5.15-.24c1.6.11,1.62,1,1.94,2.46.28,1.21.74,2.2,1.84,2.51-.81,1.44-1.67,2.83-2.55,4.26a5.2,5.2,0,0,0-.85,1.47c-.19,1.06.24,2-.19,2.83-.25.52-1.07.71-1.56,1a8.79,8.79,0,0,0-6.91-3.26c-.17-.34-.32-.69-.47-1,1.32-1.15,1-4,0-5.58A4.46,4.46,0,0,0,213.72,13.37ZM217,33c-2.65-.24-4.73-2-4.92-4.12-.16-1.95.77-2.59,1.33-4a.94.94,0,0,0,.8.15c.73-.22.73-1.58,1.33-1.84a5.26,5.26,0,0,1,2.46.14,6.17,6.17,0,0,1,3.83,1.89c.44.44.92,1.26,1.42,1.32a4.3,4.3,0,0,0,2.18-.84,3.5,3.5,0,0,0,1.37-3.09,7.1,7.1,0,0,1,0-1.13,6.61,6.61,0,0,1,.85-1.46c.94-1.53,1.74-2.85,2.7-4.31a18.23,18.23,0,0,0,4.39-.32,9,9,0,0,1-.28,2.87c-.86-.63-2.33.11-3.12.15-.26,0-.54-.16-.75-.1-.4.1-.72,1-1,1.52a12.43,12.43,0,0,0-1.6,5.77,10.07,10.07,0,0,1,.05,1.47,7.21,7.21,0,0,1-.57,1.46c-.55,1.35-1.33,3.09-2.42,3.69C223.34,33.12,219.41,33.18,217,33Zm1.9,5.67a14.23,14.23,0,0,0,2.23-.52c.45-.2.81-.78,1.18-1.14s1-.72,1.09-1.23a14,14,0,0,0-.15-1.6c2.63-.31,3.85-1.65,4.88-3.59a11.62,11.62,0,0,0,1.37-3.46c.14-1.21-.16-2.24.05-3.32.28-1.5,1.12-2.61,1.6-4,1.06-.31,3-.89,3.36.42,0,2.24-.63,2.9-2.37,3.32-.69.15-1.49.13-1.74.51s-.06,1.43,0,2.08a35.49,35.49,0,0,0,.84,6.29,6.49,6.49,0,0,0,1.86,2.9,9,9,0,0,0,2.68,2.07,23.67,23.67,0,0,0,3.12.33c1.05.14,2,.36,3,.52a48.66,48.66,0,0,1-11.35,4.45,21.85,21.85,0,0,1-7,.86,12.6,12.6,0,0,1-3.18-.82c-1.91-.71-3.25-1.52-3.74-3.59C217.32,39,218.07,38.81,218.88,38.63ZM177.44,27.14a5.2,5.2,0,0,1,.52,1.27c-.94.66-1.53,1.66-2.42,2.36-.24-.07-.43-.19-.65-.27A3.28,3.28,0,0,1,177.44,27.14Zm40.21,62.79-2.91.34L208,91a9.39,9.39,0,0,1,.05-1.42c2.59-.3,5.2-.58,7.81-.87l2.74-.3c4.49-.48,9-1,13.42-1.47.06,0,.06.07,0,.14a8,8,0,0,1,.19,1.14Zm13.1,8c-.39-1.88-.68-3.86-1-5.77,1-.13,2.09-.27,3.17-.37.26,1.49,1.08,3.69.71,5.26a2.09,2.09,0,0,1-.9,1.36l-.63-.19A8.66,8.66,0,0,0,230.75,97.9Zm1.94-18c.21-1.53,1.32-2.43,2.23-3.45,2-2.26,3.45-5.06,5.34-7.24.52,2.59,1.12,5.19,1.7,8,.41,2,.83,4,1.23,5.92a9.36,9.36,0,0,1,.39,2c-.06.31-.77.93-1.05,1.28-2.21,2.66-4.28,5.2-6.38,7.8a5.86,5.86,0,0,1-1.09,1.18c-.66-3.73-1.51-7.44-2-11.35A15.48,15.48,0,0,1,232.69,79.93Zm23.88,9.88a14.27,14.27,0,0,1-2.92,3.65l-3.29,3c-4.68,4.21-9.35,8.32-14.17,12.5-1.25-1.16-2.68-2.18-3.45-3.84a32.68,32.68,0,0,1-1.66-5.67c.72,0,1.29.53,2,.43.54-.09,1.24-1.21,1.61-1.66,2.32-2.87,4.52-5.53,6.77-8.26l2.13-2.58c.4-.48,1.46-1.47,1.41-2a39.94,39.94,0,0,0-.89-4.54c-.3-1.49-.63-3-.95-4.54-.64-3-1.35-6.08-1.8-9.13a25.65,25.65,0,0,1-.8-3.37c-.19-.9-.23-2.91-1.18-3-1.21-.07-.4,2.27-.24,3,.11.5.21,1.14.33,1.71a8.19,8.19,0,0,1,.39,1.7c0,.26-.47.65-.72,1l-2.18,3c-1,1.37-1.78,2.73-2.87,4s-2.29,2.31-2.7,4.16.25,4.19.43,6.2c-4.14.45-8.27.88-12.4,1.35-.88.08-1.74.18-2.61.27l-8.74,1c.19-10.67.32-22.79.32-33.83a13.81,13.81,0,0,0,0-2.32,4,4,0,0,0-.75-1.23c-.29-.43-.53-1-1.09-.94a.69.69,0,0,0-.62.62c-.06.79.92,1.34,1,1.93A15.58,15.58,0,0,1,207,55c0,2.51,0,5.38,0,7.61-2.93,1.18-5.83,2.43-8.75,3.64-.17.06-.34.14-.51.21l-.43.18-.56.22c-2.36,1-4.78,1.92-7.25,2.8-1.91.68-4.28,1.55-6.87.86A4,4,0,0,1,180.21,69a4.71,4.71,0,0,1-.62-1.25,3,3,0,0,1-.18-.58l-.12-.44-.06-.39a4,4,0,0,1-.09-.52l0-.25a86.09,86.09,0,0,1-.68-9.49c-.13-4.6-.08-9.34-.27-13.87.44.06,1,0,1-.57s-.43-.75-.76-1-.64-.64-.89-.9a20.05,20.05,0,0,1-3-4.3c-.3-.5-.57-1-.87-1.42a2.8,2.8,0,0,0-.65-.71c-.59-.46-1.44-.7-2-1.19-.14-.13-.43-.38-.32-.46a3.69,3.69,0,0,1,1.83-.3h0a7.38,7.38,0,0,1,3,1c.51.29,1,.59,1.43.87s.92.81,1.47.71a.69.69,0,0,0,.49-.49.38.38,0,0,0,0-.17c0-.92-1.61-1.25-2-1.7A14.67,14.67,0,0,1,178.29,30c1.34.55,1.33-1,1-2a5.59,5.59,0,0,0-2.46-3.4c-1-.43-2.63-.11-3.69,0s-2.68.61-3.07-.43c2.64-.92,5.27-1.9,8.37-1.65a4.68,4.68,0,0,1,1.57.37c2.33,1.17,2.91,5.35,3.59,8.37.28,1.23.61,2.57,1,3.92.2.82.42,1.63.63,2.43.26,1,.53,2,.77,3,1.08,4.32,2.11,9,3.13,13.49.23,1.05.46,2.09.7,3.12.19.81.22,1.92,1,1.93,1.28,0,.37-1.78.34-2.59a6,6,0,0,1,1.18-1.28c.43-.43.88-.82,1.33-1.23,2.7-2.47,5.17-5.16,8-7.48l1.44-1.2c.58-.49,1.15-1,1.75-1.41a19.07,19.07,0,0,1,2.67-1.78,34.56,34.56,0,0,1,7.77-2.56c.69,2.56,2.23,3.64,4.54,4.54a13.23,13.23,0,0,0,3.64.85,24.11,24.11,0,0,0,7.8-1,61.68,61.68,0,0,0,11.21-4.39,8.32,8.32,0,0,1,1.51-.75,5.07,5.07,0,0,1,1.28.32c4.73,1.37,6.9,5.3,7.76,10.36.32,1.87.64,3.83.9,5.68,1.34,9.81,2.79,19.36,3.7,29.19A9.61,9.61,0,0,1,256.57,89.81Zm-35.26,76.91c0,.24,0,.48,0,.72l-.09,2.77c0,.11,0,.23,0,.35-.06,1.42-.11,2.85-.18,4.27a5.9,5.9,0,0,1,0,.74c0,.23,0,.46,0,.69s0,.33,0,.5,0,.22,0,.33,0,.25,0,.37l0,.72c0,.5-.05,1-.07,1.49a2.06,2.06,0,0,1,0,.35c-.37,9.16-.41,18.38-.81,27.53h-3.15c-2.64,0-5.28,0-7.91,0-1.33,0-2.65,0-4,0h-.13c.15-5.25.29-10.48.43-15.72q.17-5.88.31-11.77c0-.61,0-1.23.06-1.84,0-.24,0-.48,0-.72s0-.22,0-.34,0-.24,0-.36c.06-2.07.11-4.14.17-6.2l0-1.28c0-.23,0-.44,0-.67a.25.25,0,0,0,0-.12c0-.18,0-.37,0-.55s0-.33,0-.5,0-.48,0-.72,0-.46,0-.7c.12-4.27.24-8.52.34-12.78,0-.21,0-.4,0-.6s0-.4,0-.59c0-1.44.08-2.9.12-4.35,0-.33,0-.65,0-1,0-.15,0-.31,0-.45.22-7.66.42-15.31.64-23a1.55,1.55,0,0,1,0-.21h-.6v-.59h-.35l0-.59h.94c.07-2.49.15-5,.22-7.48,0-.46,0-.93,0-1.39s0-.92,0-1.38l-.68-.33a1.92,1.92,0,0,1-.25-.12c-.16-.07-.31-.16-.48-.24,0,.7,0,1.42-.06,2.13,0,.46,0,.93-.05,1.39l-.21,7.4v0c0,.21,0,.4,0,.59s0,.4,0,.59v.16c-.12,4.47-.24,8.95-.32,13.44q-.09,4.55-.22,9.11c0,.15,0,.3,0,.45,0,.33,0,.68,0,1,0,1.6-.09,3.19-.14,4.79,0,.19,0,.4,0,.59s0,.39,0,.6c-.1,3.5-.22,7-.32,10.51,0,.75,0,1.52-.06,2.27,0,.24,0,.48,0,.7s0,.48,0,.72,0,.33,0,.5,0,.36,0,.53v.2c0,.2,0,.41,0,.6,0,.43,0,.86,0,1.29,0,2.06-.1,4.13-.13,6.2a2.17,2.17,0,0,0,0,.36c0,.12,0,.22,0,.34s0,.48,0,.72c0,.61,0,1.22-.05,1.84q-.1,5.39-.32,10.83c-.17,4.33-.35,8.94-.37,13.54,0,1.19-.38,3.76.09,4.3.27.3.79.24,1.41.24-.22,1.1-.08,2.26-.25,3.26a3,3,0,0,1-.26.9,9.52,9.52,0,0,1-.54,1h1.54a1.13,1.13,0,0,1,.15-.21.49.49,0,0,1,.22-.23c.17-.06.34,0,.52.05.74,0,1.54.07,2.36.08h5c1.32,0,2.61,0,3.78.08h.25a.61.61,0,0,1,0,.19h1.43c0-.6,0-1.19.07-1.81v-.1c.05-1,.08-2.1.12-3.21.75,0,1.5.12,1.8-.29s.22-2.59.23-3.36c.17-8.36.48-16.84.79-25.31,0-.14,0-.28,0-.42,0-.48,0-1,0-1.42l0-.72c0-.24,0-.48,0-.7,0-.59,0-1.16.07-1.73s0-1,.05-1.53a.09.09,0,0,1,0-.05c0-.48,0-.95.05-1.41s0-1,.06-1.48a1.47,1.47,0,0,1,0-.21c0-1,.07-1.94.1-2.91,0-.24,0-.48,0-.72s0-.46,0-.7h-1.41C221.33,166.26,221.32,166.48,221.31,166.72Zm-3.45,45.47a2.85,2.85,0,0,0,0,.29c-1.84,0-3.64,0-5.44-.09l-2.1,0-1.38,0-2.72,0h-.09s0-.06,0-.1c.12-1.09.22-2.21.37-3.26h.08c.78,0,1.57,0,2.35,0,3,0,6,.05,9.07,0C218,210.08,217.93,211.15,217.86,212.19Z"/><path class="cls-7" d="M250.71,223c-6.27,0-12.43.06-18.69.05a9.48,9.48,0,0,1,3.33-5.68,4.63,4.63,0,0,1,1.18-1,6.76,6.76,0,0,1,1.5-.1,9.15,9.15,0,0,1,3.5.28c1.1.43,2.05,1.79,2.75,2.79.53.77,1.06,2.23,1.7,2.42a8.65,8.65,0,0,0,3.08-.24c.67-.4.7-2.16,1.14-2.7C250.37,220.16,250.63,221.7,250.71,223Z"/><path class="cls-6" d="M222.24,12.85c-.84-.09-3.46-.17-3.5.85-.06,1.26,2.52.33,3.59.57a4.66,4.66,0,0,1,2,1.28c.1.09.37.38.66.38a.75.75,0,0,0,.71-.67c0-.76-1.84-1.95-2.51-2.22A3.17,3.17,0,0,0,222.24,12.85Z"/><path class="cls-6" d="M233.16,20.09c-.5-.2-2.37.62-2.36,1.23,0,1,1.19.35,1.75.09.28-.12.88-.26.94-.71A.51.51,0,0,0,233.16,20.09Z"/><path class="cls-6" d="M220.11,24.06c-.59-.23-.65.3-1.42.38s-2-.6-2,.38c0,.71,1.23.82,1.94.8s1.8-.5,1.84-1S220.3,24.13,220.11,24.06Z"/><path class="cls-4" d="M247.51,210.46a.6.6,0,0,1-.59-.51l-13.33-94.12a.68.68,0,0,1,.06-.34l2.51-5.06a.59.59,0,1,1,1.05.52l-2.42,4.9,13.3,93.93a.59.59,0,0,1-.5.67Z"/><path class="cls-4" d="M217.39,208.69a.59.59,0,0,1-.59-.61l3.07-72.67a.61.61,0,0,1,.62-.57.59.59,0,0,1,.56.62L218,208.12A.6.6,0,0,1,217.39,208.69Z"/><path class="cls-6" d="M233.21,91.24l-4.12.76,1.23,6.2,2.7.57,1.51-2.09Z"/><path class="cls-6" d="M216.3,16.76v1.47a1,1,0,1,1-2,0V16.76a1,1,0,0,1,2,0Z"/><path class="cls-6" d="M222.4,16.62v1.47a1,1,0,0,1-2,0V16.62a1,1,0,0,1,2,0Z"/><path class="cls-9" d="M150.82,77.42a136.78,136.78,0,0,0-3.95-20.07,86,86,0,0,0-4-11.8c-.12-.28-.25-.56-.38-.82-1-2.14-2.06-3.65-3-4.21-.51-.28-1.05-.56-1.6-.8h0a29.77,29.77,0,0,0-6.59-1.92s0,0,0,0c-1-.19-1.9-.31-2.45-.37h0l-.63-.06-.09-.15h0a6.85,6.85,0,0,0-.73-.93,2.84,2.84,0,0,0-1.08-.78,1.12,1.12,0,0,0-.4-.07l-1.47,0h-.65v-.17l0-.62.29-5.6s.63-.79,1.22-1.59l.05-.06a3,3,0,0,0,.18-.24h0c.28-.41.55-.78.68-1,.32-.63.83-2.12,1-2.71.06-.17.09-.28.09-.28a3.18,3.18,0,0,0,2.27-2.65c.21-2.09-.27-3.07-.62-3a5,5,0,0,0-1.13.94s.09-.66.15-1.52a12.93,12.93,0,0,0,0-2.64,25.64,25.64,0,0,0-.56-2.55s0-.06,0-.09c-.15-.56-.29-1.06-.41-1.43,0-.17-.09-.31-.13-.42l-.05-.19,2.55-1.28a6.47,6.47,0,0,0-1.75-1.75,20.91,20.91,0,0,0-2.83-1.7l2.36-3.23a6.09,6.09,0,0,0-3.59-.37c-1.88.43-5.77,1.84-5.77,1.84l-.2-2.55a8.92,8.92,0,0,1-3.78,3.74c-2.58,1.24-6.78,2.24-7.19,6.39S108,20.88,108,20.88,106.39,22,106.63,23s1.69,3,2.61,3.08a4.14,4.14,0,0,0,2-.52A14.72,14.72,0,0,0,113.2,28a7.4,7.4,0,0,0,2.09,1.37l-.52,3.84a6.12,6.12,0,0,1-1.64,1.63,7.09,7.09,0,0,1-1.48.83l-.6.21a28.23,28.23,0,0,1-5.65.92s-10.33-.4-13.34,6.38l-.1.24a.59.59,0,0,1-.06.14c-.24.55-.49,1.18-.74,1.87a0,0,0,0,0,0,0c-1.3,3.54-2.82,8.68-4.22,13.69l0,.14c-1.83,6.58-3.46,12.92-4.11,15.17-1.07,3.62-1.66,7.74.18,10.34l0,0a5.22,5.22,0,0,0,1.51,1.4,5.86,5.86,0,0,0,1.93.76,10,10,0,0,0,1.83.24,22.08,22.08,0,0,0,5-.39c1.41-.28,2.38-.57,2.38-.57l-.94,5.37,0,.13-4.86,27.91,3.07-.88,1.24-.35a.28.28,0,0,1,0,.06h0c-.3,1.45-4.68,23.08-7,33.51,0,.18-.08.36-.12.55-.15.7-.29,1.35-.43,1.92a55.38,55.38,0,0,0-1.79,10.18c-.15,3.65.52,7.61,2.87,12.9a67.55,67.55,0,0,0,3.56,6.87c8.76,15,11.68,20.06,11.68,20.06l1.57-.77s2.66,4.37,1.84,6.06-4.06,5.16-5.15,7.52-1.48,4.22-.67,5.26,9.65.61,9.65.61l.34.62,23.6-.91a5.93,5.93,0,0,0-3.07-4.58c-2.83-1.38-6.32-3.64-6.63-4.3a4.12,4.12,0,0,1-.66-3.12c.12-1.17,4.6-32.82,8.37-59.32.24-1.67.48-3.33.71-5,1.44-10.16,2.73-19.18,3.53-24.81.09-.7.19-1.41.3-2.11.24-1.66.4-2.86.5-3.49,0-.35.07-.53.07-.53l2.27-2.55-.54-1.16-.48-1,0,0s.11-.16.3-.49v0a137.24,137.24,0,0,0,8.15-16.2,1.17,1.17,0,0,0,.05-.11c2-4.83,3.62-9.92,3.89-14.13A14.9,14.9,0,0,0,150.82,77.42Zm-40,65.63,1.53-7.48-2.79,46-.89-3.1-3-10.38Zm25.56-55.27-.67-2.06-1.1-3.42-.31-1,.9-8.74.27,1,1.65,6.05.73,2.67Zm12.81-4a17.46,17.46,0,0,1-1.6,5.35c-1.56-3.6-5.08-5.21-9.8-5.63.59-1.16.1-2.47-.14-3.69A8.92,8.92,0,0,1,144.75,77c1.89.16,2.81,1.32,3.6,2.65a6.82,6.82,0,0,1,1,2.08A8.56,8.56,0,0,1,149.15,83.82Z"/><path class="cls-6" d="M123.06,17.43l.33,1.28a1,1,0,0,1-2,.52L121.09,18a1,1,0,1,1,2-.52Z"/><path class="cls-6" d="M115.55,18.81l.34,1.28a1,1,0,1,1-2,.52l-.33-1.28a1,1,0,1,1,2-.52Z"/><path class="cls-1" d="M96.89,92.32c-2-.21-1.8-1.61-1.8-1.61l-5.16,29.53a30.78,30.78,0,0,0,6.29-2.89,29.65,29.65,0,0,0,5.78-4.87l3-20.63A65,65,0,0,1,96.89,92.32Z"/><path class="cls-1" d="M134.54,82.58l1.09-11.07,1.94,8.32s3.36-2.76,6.86-3.07,6.53,4,6.53,4-.23-1.85-.28-4.07-3.39-19.9-6.48-29.52S132.59,38,130.29,37.58a8.13,8.13,0,0,1-3.65-1.46,7.94,7.94,0,0,0-2.36-.85l0,2.64,1.13.15a19.2,19.2,0,0,1,1.8,5.39,96,96,0,0,1,.9,23.94,229.21,229.21,0,0,0-.38,29.05c.29,3.77.64,5.76,1.28,5.58s5.34-6.1,5.34-6.1l1.94-7.43Z"/><path class="cls-1" d="M111.36,36.07c-.57.31-4.59.88-9.65,1.33a11,11,0,0,0-9.65,7.38c-1.34,3.72-9.52,31-10.17,35.15s3.83,6.81,5.87,7.24,8.46-1.38,8.46-1.38S93.93,84.62,93,80.21a6.09,6.09,0,0,1,2.6-6.48l-1.94,0S92.07,53.63,92,52s2.43-1.18,6.77-1.47l12.3-.8s.85-6.13,1.23-9.09a27.12,27.12,0,0,1,1.51-5.82S111.93,35.76,111.36,36.07Z"/><path class="cls-10" d="M132.63,97.65s-3,3.94-4.26,4-1-6.39-1-6.39l-.52-.9s-8.91,8.22-14.1,9.37-9.13-2.51-9.13-2.51l-1.51,11.36L94,118.79s-8.5,41-9.37,46.42,2.84,12.39,2.84,12.39l15.71,26.68,5.15-2.88,1.09-19.78-3.69-13.91,7.19-38.18-4.4,77.17,16,.94,12.49-92.16,2.84-2.22-1.42-1.94a38,38,0,0,1-3.74-6.25,14.55,14.55,0,0,1-1.32-7.14Z"/><path class="cls-1" d="M131.2,217.91c2.89,1,3.22,5.63,3.22,5.63l-24.08-.19s-8.36-.11-9.84-.52-.37-3,.19-4.73,5.43-7.22,6.76-7.67,3.79.66,3.79.66l.19,3.88,2.31,2.79,1.33.29a35.09,35.09,0,0,1,5.25-3.08,6.65,6.65,0,0,1,4.87-.23A32,32,0,0,0,131.2,217.91Z"/><path class="cls-6" d="M110,11.39c.34-1.34,5-.38,7.47-.43s5.56-2.65,6.63-2.84,2,3.6,2,3.6L127,19l.38-.28a35.93,35.93,0,0,0,.38-5.78c-.11-2.66-1.52-3.59-1.52-3.59l3.27-1.14a8.39,8.39,0,0,0-1.61-1.84,24.82,24.82,0,0,0-3-2l2.17-2.65s-1.47-.13-3.4-.09S118,3.39,118,3.39L117.9.93l-1.71,1.75a24.48,24.48,0,0,1-2.5.9c-1.23.35-5.73,3.31-6.91,6.2s1.7,10.5,1.7,10.5l1.61,1.09S109.61,12.72,110,11.39Z"/><path class="cls-7" d="M120.8,49.8l3.1,38.72a1.42,1.42,0,0,1-1.31,1.53L97,92.09a1.41,1.41,0,0,1-1.52-1.3L92.4,52.07a1.42,1.42,0,0,1,1.3-1.53l25.57-2A1.42,1.42,0,0,1,120.8,49.8Z"/><path class="cls-4" d="M123.43,75.27l-.61-7.57-.12-1.43-.1-1.41-1.21-15.1a2,2,0,0,0-2.16-1.85l-7.44.59-1.45.11L93.65,50a2,2,0,0,0-1.84,2.17l0,.42.05.59,0,.59,1.53,19.22.34,4.21L94.27,83l.13,1.58.18,2.18.33,4.1a2,2,0,0,0,.15.61,1.56,1.56,0,0,0,.35.55,1.19,1.19,0,0,0,.19.2h0a2,2,0,0,0,1.29.48h.17l16.5-1.31,7.78-.63,1.3-.1A2,2,0,0,0,124,90s0,0,0,0a2,2,0,0,0,.51-1.5Zm-.13,13.3a.78.78,0,0,1-.21.62s0,0,0,0a.76.76,0,0,1-.53.25L97,91.5a.82.82,0,0,1-.88-.76l-.35-4.36-.19-2.31-.7-8.81-.19-2.43L93.1,53.54l0-.59,0-.59L93,52a.85.85,0,0,1,.77-.9L108.33,50h.08l8.8-.7,2.17-.17a.83.83,0,0,1,.83.75l1.22,15.29.12,1.42.12,1.58.1,1.3.12,1.46.11,1.4.17,2.12.16,2,.06.77.48,6Z"/><path class="cls-7" d="M117.36,50.6l6.44,38.08a2.2,2.2,0,0,1-1.63,1.94L96.81,94.57a1.42,1.42,0,0,1-1.62-1.18L89.2,55a1.41,1.41,0,0,1,1.18-1.62l25.36-4A1.42,1.42,0,0,1,117.36,50.6Z"/><path class="cls-4" d="M123.47,83.15l-1-6-.12-.7-.27-1.6-.44-2.61-.19-1.13-.73-4.32-.24-1.4L117.94,50.5a2,2,0,0,0-.73-1.24s0,0-.07-.06a2,2,0,0,0-1.5-.37L108.41,50h-.08L93,52.36l-.59.08-.57.1-1.56.24a1.47,1.47,0,0,0-.45.14,2,2,0,0,0-1.23,2.16l.2,1.32,2.64,16.91.35,2.23,0,.12,1.7,10.83.07.53,0,.13.55,3.52.44,2.81a1.94,1.94,0,0,0,.37.87,2,2,0,0,0,1.61.83,1.09,1.09,0,0,0,.31,0l6.61-1L105,93.9l17.29-2.7A2.85,2.85,0,0,0,124,90s0,0,0,0a2.21,2.21,0,0,0,.42-1.39ZM96.72,94a.83.83,0,0,1-1-.68l-.17-1.1-.86-5.51-.34-2.13-.29-1.9L93.54,79h0l-.92-5.91L89.78,54.89a.83.83,0,0,1,.69-.94l1.47-.23.58-.09.58-.09L115.82,50l.14,0a.83.83,0,0,1,.49.17.87.87,0,0,1,.33.55l1.8,10.67.64,3.75.1.57.23,1.4,1.59,9.39L121.4,78l1.82,10.7a1,1,0,0,1-.13.46s0,0,0,0a1.76,1.76,0,0,1-1,.84l-.72.11-7.78,1.22Z"/><path class="cls-9" d="M92.46,81c-.22-3,2-7.28,2-7.28s-.89,0,.81-.19,12.44-2.14,14.24-3.17,2.1-2.87,3.36-4.69,2.15-1.43,2.88-1.46,1.79-1.19,2.65-1.71.6.68.66,1.75-1.2,1-1.79,1.52a8,8,0,0,0-1.33,1.7s7.53-1.77,8.52-2,.63,1.15.28,2.08a2.23,2.23,0,0,1-1.23,1.23,36.58,36.58,0,0,1-.8,6.58,4.27,4.27,0,0,1-3,2.93c-1.55.62-10.36,2.65-10.36,2.65L95,85.68A6.88,6.88,0,0,1,92.46,81Z"/><path class="cls-6" d="M125.13,64.53a4.05,4.05,0,0,0-2,.2,5.47,5.47,0,0,0-.55.13A5.11,5.11,0,0,0,122,65l-.58.14-1,.25-.57.16-.57.15-1.66.46s0,0-.09,0c.4-.56,1.1-.65,1.65-1.07a1.17,1.17,0,0,0,.33-.3,1.48,1.48,0,0,0,.17-.29h0c.37-.88.42-2.8-.54-3.1a.59.59,0,0,0-.19-.05h-.41c-1.1.18-1.94,1.44-2.77,1.79-1,.43-2,.28-2.83.86-1,.68-1.55,2.16-2.32,3.41a6.59,6.59,0,0,1-2.14,2.41,14.48,14.48,0,0,1-3.26,1c-2.3.57-4.67,1-7,1.47a34.39,34.39,0,0,1-3.56.53,5.21,5.21,0,0,1-.55,0h0a4.59,4.59,0,0,0-.59.08l-.85.18-.57.12-.36.05-.24,0c-.75,0-1.93.06-1.8,1,.17,1.19,1.34,1.12,2.15,1.21h.11a.48.48,0,0,0-.09.11c-2,2.39-3,8,.34,9-2,.45-1.12,1.87-3.36,1.74-3.74-.2-6.47-2.82-6.15-7.18a8.82,8.82,0,0,1,.21-1.38c.06-.3.15-.59.22-.89.29-1,.64-2,.85-3.08h0c-.1-.05-.32.23-.46.38a11.55,11.55,0,0,0-1.52,1.62,0,0,0,0,0,0,0,3,3,0,0,0-.2.72c0,.07,0,.14,0,.22a6.66,6.66,0,0,1-.12.67,13,13,0,0,0-.32,1.71,7.67,7.67,0,0,0,7.8,8.6,13.33,13.33,0,0,0,3.07-.46L93.59,87l.41-.11.18,0,.4-.12.16,0a2.92,2.92,0,0,0,.42-.13,3,3,0,0,0,.58-.18c1.53-.46,3-1,4.42-1.5Q104,83.49,107.87,82a22.42,22.42,0,0,1,2.51-1c1.13-.29,2.29-.37,3.4-.61s2.1-.5,3.17-.82A17.53,17.53,0,0,0,121.4,78a3.29,3.29,0,0,0,.54-.38,2.67,2.67,0,0,0,.45-.44.19.19,0,0,0,.06-.07l0,0a3.65,3.65,0,0,0,.45-.68,6.86,6.86,0,0,0,.5-1.16,24,24,0,0,0,.85-5.43,5.09,5.09,0,0,1,.1-1.18c.08-.21.39-.34.61-.53C125.74,67.49,126.37,65,125.13,64.53ZM99.3,83.7a10.93,10.93,0,0,1-2,.7,3.35,3.35,0,0,1-1.77-.33,4.06,4.06,0,0,1-.62-.37,2.88,2.88,0,0,1-.5-.48,2,2,0,0,1-.16-.24,1.59,1.59,0,0,1-.16-.32A8.1,8.1,0,0,1,93.54,79h0a9.9,9.9,0,0,1,.27-1.88A5.3,5.3,0,0,1,94.25,76a.12.12,0,0,1,0-.07,2.93,2.93,0,0,1,.55-.65,4.6,4.6,0,0,1,.53-.46,5.83,5.83,0,0,1,1.46-.9c.5-.14,1.21-.17,1.85-.29a11.87,11.87,0,0,1,1.89-.27c-1.48,1-2.47,4.07-2.22,6.62.18,1.82,1.59,2.37,2.93,3C100.65,83.18,100,83.45,99.3,83.7Zm23.52-16-.58.19a3.91,3.91,0,0,0-.57.24.78.78,0,0,0-.46.67.58.58,0,0,0,.56.63,1.58,1.58,0,0,0,.6-.05,2.41,2.41,0,0,0,.54-.16c0,.52-.1.91-.1,1.42a3.18,3.18,0,0,1-.33.09c-.21,0-.41.1-.59.16a1.4,1.4,0,0,0-.46.21.61.61,0,0,0-.27.58.59.59,0,0,0,.46.55,1.59,1.59,0,0,0,.38.06,3.06,3.06,0,0,0,.59-.07s0,0,0,0,0,.08,0,.11c-.16.66-.25,1.41-.43,2.1a2.45,2.45,0,0,1-.11.43,4.43,4.43,0,0,1-.42,1s0,0,0,0a2.7,2.7,0,0,1-.49.58c-1.21,1.12-3.46,1.41-5.33,2a29.26,29.26,0,0,1-2.88.67c-1,.19-2.08.3-3,.56s-2.19.85-3.22,1.23c-.46.18-1,.41-1.61.62a5.85,5.85,0,0,1-1.65.56,5.75,5.75,0,0,1-1.94-.61c-1.13-.47-1.75-.76-1.75-2.22a9.22,9.22,0,0,1,.9-3.93,6.17,6.17,0,0,1,1.42-1.42,7.72,7.72,0,0,1,1.66-1.23,11.32,11.32,0,0,1,1.74-.42,10.87,10.87,0,0,0,4.69-1.9A10,10,0,0,0,112,67.89c.45-.72,1.07-2.23,1.71-2.69a5.23,5.23,0,0,1,1.66-.47A8.9,8.9,0,0,0,118.56,63c0,.32,0,.71-.1.9a7.44,7.44,0,0,0-2.65,2.22c-.27.37-.86,1-.8,1.47.12,1.11,2,.25,2.74,0l1.8-.51.57-.15.58-.16.85-.23q.28-.06.57-.15l.58-.13c.59-.13,1.16-.27,1.73-.36C124.65,67,123.73,67.4,122.82,67.7Z"/><path class="cls-1" d="M101.29,83c-.64.2-1.28.47-2,.72a10.93,10.93,0,0,1-2,.7,3.35,3.35,0,0,1-1.77-.33,4.06,4.06,0,0,1-.62-.37,2.88,2.88,0,0,1-.5-.48,2,2,0,0,1-.16-.24,1.59,1.59,0,0,1-.16-.32A8.1,8.1,0,0,1,93.54,79h0a9.9,9.9,0,0,1,.27-1.88A5.3,5.3,0,0,1,94.25,76a.12.12,0,0,1,0-.07,2.93,2.93,0,0,1,.55-.65,4.6,4.6,0,0,1,.53-.46,5.83,5.83,0,0,1,1.46-.9c.5-.14,1.21-.17,1.85-.29a11.87,11.87,0,0,1,1.89-.27c-1.48,1-2.47,4.07-2.22,6.62C98.54,81.78,100,82.33,101.29,83Z"/><path class="cls-6" d="M150.87,73.79c-.89-5.44-2-11.13-3.32-16.44-.38-1.57-.77-3.11-1.17-4.61-1.3-4.86-1.92-9-5.19-11.87a17.58,17.58,0,0,0-9-3.79,22.61,22.61,0,0,1-3.68-.56,2.5,2.5,0,0,1-.55-.26c-.36-.22-.7-.5-1.09-.78a3.41,3.41,0,0,0-2.48-.81h0c0-1.51.16-2.83.24-4.3a7.32,7.32,0,0,1,0-1.42c.08-.35.68-.78,1-1.14.1-.11.19-.23.27-.33l0-.06a3,3,0,0,0,.18-.24h0a8.85,8.85,0,0,0,1.47-3.66l.25-.08a3.69,3.69,0,0,0,1-.35,5.31,5.31,0,0,0,1.62-3.16c.16-1.62-.34-3.42-1.83-3l-.3.12a16.17,16.17,0,0,0-.28-5.31.37.37,0,0,1,0-.09c-.15-.56-.3-1.06-.42-1.43,0-.14-.09-.28-.14-.41h0c.48-.56,2.47-.56,2.59-1.49.1-.77-1.19-1.75-1.69-2.22A7.4,7.4,0,0,0,126,4.59c.42-.53,3.26-2.88,1.32-3.79-1.17-.55-3.41-.09-4.73.19a35.28,35.28,0,0,0-4,1.28C118.5,1.52,118.86,0,118,0c-.6,0-.84.51-1.18.94s-.67.89-1,1.19a6.73,6.73,0,0,1-2.59,1.61c-2.22.9-3.92,1.61-5.3,3.17a8.19,8.19,0,0,0-2.08,6.29,27.66,27.66,0,0,0,1.55,6.91c-.77,1-1.8,2.19-1,3.64.54.93,1.92,2.53,3.13,2.69a4.32,4.32,0,0,0,1.79-.19,41.91,41.91,0,0,0,3.26,3.27c-.1,1.11-.14,2.31-.24,3.45a14.34,14.34,0,0,1-3,2,11.31,11.31,0,0,1-4.3.66c-6.21.35-11.55,1.76-14.29,5.59a24.14,24.14,0,0,0-3,7c-2.3,7.54-4.55,15.27-6.66,23.13-.34,1.26-.71,2.58-1,3.93,0,.21-.11.42-.16.64a0,0,0,0,0,0,0c-.07.24-.13.48-.2.72,0,.07,0,.14,0,.22a13.4,13.4,0,0,0-.48,2.45,7.65,7.65,0,0,0,3.69,7.53A8.6,8.6,0,0,0,89.39,88a19.45,19.45,0,0,0,4.23-.83L94,87c0-.05,0-.08,0-.13a.23.23,0,0,0-.09-.08c-.1-.11-.28-.22-.39-.34l0,0c-.21-.23-.34-.59-.57-.56-2.46.83-5.42.87-7.47-.34a6.32,6.32,0,0,1-2.85-6.25,11.61,11.61,0,0,1,.25-1.45c.06-.3.15-.59.22-.89.13-.48.26-1,.39-1.43s.29-1.1.45-1.65c1.55-5.85,3.2-11.74,4.89-17.5l.4-1.33c.12-.43.25-.86.38-1.29l.25-.86c.26-.87.51-1.73.78-2.59,1.49-5,2.67-9.31,7.19-11.3a24.82,24.82,0,0,1,7.42-1.85c2.76-.29,5.73.09,7.76-1.47A36.48,36.48,0,0,0,111.28,43c-.32,1.85-.64,3.71-.94,5.61l-.06.35a2.88,2.88,0,0,1,.92-.13,2.33,2.33,0,0,1,.53.07c0-.13,0-.27.06-.4.21-1.41.44-2.79.68-4.18a17,17,0,0,0,3.07,1.42,28,28,0,0,0,3.83.71,7.87,7.87,0,0,0,4-.24,13.37,13.37,0,0,0,2.83-1.7c1.52,7,1.06,15.94.67,24.27-.3,6.14-.62,12.13-.62,18.63,0,1.39.12,3.16.19,4.64a9.13,9.13,0,0,1,0,1.51c-.08.35-.61.77-1,1.19A37.84,37.84,0,0,1,122.26,98a24.17,24.17,0,0,1-5.21,3.4c-1.86,1-4.18,2.13-6.81,1.76a19.55,19.55,0,0,1-6.24-2.36c.32-2.3.63-4.58,1-6.86,0-.22.05-.42.09-.62s0-.24,0-.36l-.3.14a2.52,2.52,0,0,1-.86.16h-.3a2.93,2.93,0,0,1,0,.29c0,.21,0,.41-.08.63-.76,5.34-1.52,10.81-2.3,16.13a9.37,9.37,0,0,1-.24,1.67c-.13.31-.76.68-1.13,1-2.76,2.25-5.34,4.55-9,5.86,1.27-7.89,2.75-16.3,4.09-24.43,0-.26.08-.52.13-.79a2.33,2.33,0,0,1,.06-.33A6.87,6.87,0,0,0,95.41,92a.19.19,0,0,0,0-.08.76.76,0,0,0-.06-.16,1.57,1.57,0,0,0-.28-.31.29.29,0,0,1-.09-.1l-.11-.1a1.09,1.09,0,0,1-.23-.39,3.27,3.27,0,0,1-.09-.7c0-.08.09-.23.09-.36a.15.15,0,0,0,0-.06.2.2,0,0,0-.13-.14c-.27,0-.23.51-.28.8,0,.09,0,.18,0,.27-1.55,9.33-3.07,18.58-4.69,28.06-.12.71-.33,1.49.15,1.75s1.26-.16,1.79-.37,1.2-.58,1.66-.72c-2.73,13.64-5.9,27.36-8.38,41.44a37.57,37.57,0,0,0-.84,6.25A22.08,22.08,0,0,0,87,178.14c1.66,3.12,3.45,6.17,5.15,9.09,2.94,5.07,6.18,10.48,9.23,15.65.33.57,1,2.08,1.51,2.18s.81-.35,1.23-.52c.55,1.2,1.84,2.48,1.76,4.26a5,5,0,0,1-1,2.12c-.49.73-.86,1.28-1.28,1.86a31.77,31.77,0,0,0-2.7,3.59,16.05,16.05,0,0,0-.9,2.08,6.8,6.8,0,0,0-.62,2.32,3.58,3.58,0,0,0,.48,1.51,2.61,2.61,0,0,0,1.56,1.28c1.37.49,3.5.24,5.25.33a24.45,24.45,0,0,1,2.75,0c.34.07.62.39.89.43a12.26,12.26,0,0,0,1.57,0c6.72,0,13.13-.34,20.06-.34.84,0,2.52.11,2.83-.29s-.06-1.61-.24-2.22a11.93,11.93,0,0,0-.8-1.89,6.43,6.43,0,0,0-2.89-2.5,28.52,28.52,0,0,1-5.1-3,3.34,3.34,0,0,1-1.19-1.52,14.27,14.27,0,0,1,.34-3.11c1.77-15.25,4.09-30.34,6.14-45.33.58-4.26,1.17-8.43,1.75-12.57l.72-5c1.17-8.23,2.35-16.38,3.52-24.81l.3-2.11.29-2.12a11.37,11.37,0,0,1,.21-1.37s0-.06,0-.1c.17-.46.82-1,1.27-1.47s1.11-1,1.13-1.55-.29-.81-.62-1.12a1.86,1.86,0,0,1-.6-.78,1.79,1.79,0,0,0,.12-.24c.08-.18.18-.36.28-.54v0c2.61-5.22,5.53-10.64,8.14-16.2a.22.22,0,0,0,.05-.11c.62-1.3,1.23-2.61,1.81-3.94a23.73,23.73,0,0,0,2.08-8.37c0-.61,0-1.22,0-1.82A40.31,40.31,0,0,0,150.87,73.79ZM128.22,18.88c.25-.12.41-.35.71-.43A3.35,3.35,0,0,1,127.79,22c0-.47.08-1,.15-1.47C128.47,20.25,129.2,19.22,128.22,18.88Zm-1.9,19.58a3.77,3.77,0,0,0-2-1.46h0a.34.34,0,0,0,0-.15,3.19,3.19,0,0,1,0-.61c0-.07.06-.13.15-.14,1.74,0,2.16,1.15,3.35,1.66a15.57,15.57,0,0,0,3.65.61c5.7.78,9.89,3.19,11.68,7.85a58.08,58.08,0,0,1,1.76,6.1c1,3.86,1.94,8.33,2.88,12.73A94,94,0,0,1,150,78.48c-.41-.42-.77-1.08-1.23-1.52-1.34-1.29-3.66-1.61-5.92-1.18a9.82,9.82,0,0,0-4.39,2.13c-.12.1-.34.35-.53.23-.49-2.21-.94-4.41-1.41-6.57a8.25,8.25,0,0,1-.28-.9,8.8,8.8,0,0,1,.14-1.42c.25-2.37.51-4.78.75-7.09a21.88,21.88,0,0,1,.29-2.89,14.86,14.86,0,0,1,.89-2c.3-.67,1.44-2.63.05-2.61-.64,0-1,1.28-1.32,1.95a15.92,15.92,0,0,0-1,2.36,26.49,26.49,0,0,0-.33,2.83c-.53,4.81-1,9.78-1.41,14.53a37.35,37.35,0,0,0-.43,6,19.71,19.71,0,0,0,.61,2.74,19.12,19.12,0,0,0,.62,2.79c.12.29.53.41.56.62-.51,1.87-.95,3.66-1.45,5.49a12.36,12.36,0,0,1-.53,1.84,8,8,0,0,1-1.23,1.37c-1.08,1.22-2,2.33-3.12,3.41-.2.2-.48.56-.67.47-1.87-12.2-.34-26.76-.09-39.92.06-2.72.27-5.48.14-8.23a74.82,74.82,0,0,0-1.51-11A13.45,13.45,0,0,0,126.32,38.46Zm9.85,47.82c-.11-1.31-.75-2.56-.91-4a5.09,5.09,0,0,1,0-.56c0-2.17.47-4.44.61-6.62.48,2.39,1,4.71,1.52,7.09-.37,1.14-.61,2.38-1,3.51A5.27,5.27,0,0,1,136.17,86.28Zm-9.75-64.94c-.2,2.12-.54,4.12-1.79,5.53a7.26,7.26,0,0,1-4.64,2.7,7.68,7.68,0,0,1-3.88-.81,12.36,12.36,0,0,1-3.5-3.27c-.35-.4-.73-1-1.28-1s-.68.84-1.69.53c-.55-.43-2.12-1.53-2.14-2.37a1.32,1.32,0,0,1,.81-1.19c.38,0,.73.44,1,.76-.44.1-.73.24-.72.71.06,1.07,2.38.28,2.47-.37a4.52,4.52,0,0,0-.2-.91c-.25-2.17-.4-5.28-.56-7.71-.06-.86-.2-1.79.48-2.22a54.44,54.44,0,0,0,6,.37,8,8,0,0,0,3.5-1.22c1.19-.67,2.16-1.59,3.59-1.66a.3.3,0,0,1,.14.1C126.1,12.17,126.83,17,126.42,21.34ZM111.09,6.2c1-.56,2.25-.94,3.36-1.42A7.46,7.46,0,0,0,116.91,3c.06-.06.07-.31.24-.19-.07,1.83,1.37,1,2.41.58A17.29,17.29,0,0,1,126.37,2a7.05,7.05,0,0,1-1.32,1.42c-.39.36-1.17.85-1.14,1.42s.61.64,1,.81A6.28,6.28,0,0,1,128.13,8c-.81.47-2.1.46-2.32,1.52-.48-1-1.09-2-2.79-1.66-2.14.5-3.54,2.65-6.16,2.84a23.71,23.71,0,0,1-3.26-.14,12.23,12.23,0,0,0-3.21-.19,2.46,2.46,0,0,0-1.57,2.17,24.27,24.27,0,0,0,.24,3.93c.1,1.32.21,2.57.24,3.87-.63-.27-.7-1.06-.89-1.69s-.42-1.38-.58-2.08a17.08,17.08,0,0,1-.61-4.68A6.88,6.88,0,0,1,111.09,6.2Zm10.93,39a15.63,15.63,0,0,1-5.2-.61,8.62,8.62,0,0,1-2.23-.72c-.46-.22-1.69-.8-1.79-1.18a3.3,3.3,0,0,1,.19-1c.22-1.12.35-2.09.56-3.12,2.8-.78,2-5.16,2.37-8.33,2.07.91,5.61,1.08,7.24-.33.08,1.88-.54,5.45-.29,7.43.12.87,1.3,2,2.13,1.71a20.24,20.24,0,0,1,1,4C124.81,43.58,123.78,44.93,122,45.17ZM110.9,207.28c0,.94-.17,2.14-.23,3.18-1-.35-2.26-1-3.59-.62.69-2.35-.87-4.51-1.71-6.06.85-.57,1.72-1.11,2.61-1.65-.09,1.51-.23,3-.24,4.54C108.15,207.52,109.8,207.12,110.9,207.28Zm12.64,6.49c-4.05-.06-6.07,1.91-8.71,3.26-.42-.06-.79-.16-1.23-.19-.28-.4-.61-.72-.94-1.14s-.83-.83-.9-1.23a7.63,7.63,0,0,1,.15-1.74c.15-1.81.28-3.66.41-5.35,3.8.14,7.59.31,11.32.52C123.55,209.78,122.65,212.23,123.54,213.77ZM113,218.12a6,6,0,0,0,2.08.33,6.82,6.82,0,0,0,1.47-.75c2.38-1.36,4.37-2.88,8.23-2.51a15.79,15.79,0,0,0,3.74,2.27c1.1.55,2.86,1.29,3.58,2.17a8.7,8.7,0,0,1,1.24,2.93q-11.18.16-22.28.38c.1-2,.33-4.24.52-6.29C112.11,216.93,112.29,217.82,113,218.12Zm-11.92,3.45a4.83,4.83,0,0,1,0-1.94,10.65,10.65,0,0,1,.8-2,17.73,17.73,0,0,1,2.37-3.32c.43-.56.77-1.21,1.18-1.65a5.19,5.19,0,0,1,2.37-1.52c1.17-.14,2,.66,2.79.86-.3,3.48-.56,7-.89,10.51-1.38,0-2.72-.1-4.17-.1C103.85,222.38,101.51,222.57,101.07,221.57Zm35.43-106a18.92,18.92,0,0,0-.43,2.78c-1,6.63-2,13.42-2.84,19.82-3.12,22.81-6.46,45.73-9.46,68.31-4.85-.24-9.71-.47-14.61-.66,1.62-26.65,3.19-54.57,4.82-81.51a10.83,10.83,0,0,0,.1-2.6c-.2-.62-1.3-1-2-1.52l-1-.7c-.52-.35-1.68-1-1.75.09-.06.71,1.1,1.22,1.55,1.52a11.76,11.76,0,0,1,1.86,1.23c-.1,1.34-.15,2.71-.24,4.06s0,2.77-.24,4.08c-.21,1.51-.62,3.05-1,4.63-2,10.24-4,20.31-6,30.51a11,11,0,0,0-.42,2.41,9.39,9.39,0,0,0,.51,1.89c1.06,3.84,2.08,7.53,3.17,11.32a11.45,11.45,0,0,1,.57,1.83,15.54,15.54,0,0,1-.14,2.13c-.35,5.16-.55,10-.9,15.18-1.59,1-3.18,2-4.78,3-4.93-8.63-10.18-17-15-25.84-.16-.28-.32-.56-.47-.85a18.86,18.86,0,0,1-2.51-11.25c0-.26.06-.54.11-.8.24-1.73.61-3.47.88-5.21.33-2,.76-3.93,1.14-5.87.07-.34.14-.69.2-1l.12-.55c2.26-11.23,4.55-22.25,6.82-33.43l.14-.08h0a53.28,53.28,0,0,0,5.73-4.31c.59-.48,1.57-1,1.8-1.66a13.79,13.79,0,0,0,.37-2.5c.4-2.67.71-5.17,1.09-7.71a25,25,0,0,0,6.25,2.17,12.27,12.27,0,0,0,6.85-1.46,29.5,29.5,0,0,0,9.75-7.34s.06,0,0,0c.3,1.71.11,4,.57,5.49.22.72.71,1.46,1.41,1.46.53,0,.84-.38,1.18-.7.84-.77,1.56-1.58,2.32-2.42.15-.15.29-.51.43-.28a5.27,5.27,0,0,1,.15,1.08,27,27,0,0,0,1.88,6.78,34.73,34.73,0,0,0,4,5.86C138,114,136.86,114.48,136.5,115.57Zm-25,27.48c-.69,11.82-1.33,23.7-2.15,35.4a2.44,2.44,0,0,1,0,.27c-.73-2.73-1.52-5.36-2.27-8.09a13.33,13.33,0,0,1-.76-2.75,10.75,10.75,0,0,1,.33-1.66c1.65-8.17,3.35-17.29,5-25.11C111.54,141.75,111.5,142.4,111.46,143.05ZM138,109.93a18.45,18.45,0,0,1-2.88-5.29,38.58,38.58,0,0,1-1.09-5,7.13,7.13,0,0,1-.28-1.79c0-.23.43-.5.6-.72a8.76,8.76,0,0,0,1.38-3.59c.67-2.44,1.31-4.84,1.95-7.2a3.64,3.64,0,0,1,.46-1.37c4.84.26,8,2.15,9.37,5.91Q143,100.61,138,109.93Zm.43-26.39c.58-1.16.09-2.47-.15-3.69A9,9,0,0,1,145.44,77c1.89.16,2.81,1.32,3.59,2.65a6.86,6.86,0,0,1,1,2.08,8.6,8.6,0,0,1-.2,2.08,16.92,16.92,0,0,1-1.6,5.35C146.68,85.57,143.16,84,138.44,83.54Z"/><path class="cls-1" d="M149.83,83.82a16.92,16.92,0,0,1-1.6,5.35c-1.55-3.6-5.07-5.21-9.79-5.63.58-1.16.09-2.47-.15-3.69A9,9,0,0,1,145.44,77c1.89.16,2.81,1.32,3.59,2.65a6.86,6.86,0,0,1,1,2.08A8.6,8.6,0,0,1,149.83,83.82Z"/><path class="cls-6" d="M126.9,68.78c-.3,6.14-.62,12.13-.62,18.63,0,1.39.12,3.16.19,4.64a9.13,9.13,0,0,1,0,1.51c-.08.35-.61.77-1,1.19A37.84,37.84,0,0,1,122.26,98a24.17,24.17,0,0,1-5.21,3.4c-1.86,1-4.18,2.13-6.81,1.76a19.55,19.55,0,0,1-6.24-2.36c.32-2.3.63-4.58,1-6.86l17.29-2.7A2.85,2.85,0,0,0,124,90s0,0,0,0a2,2,0,0,0,.51-1.5l-1-13.2a24,24,0,0,0,.85-5.43,5.09,5.09,0,0,1,.1-1.18c.08-.21.39-.34.61-.53.75-.64,1.38-3.14.14-3.6a4.05,4.05,0,0,0-2,.2,5.47,5.47,0,0,0-.55.13l-1.21-15.1a2,2,0,0,0-2.16-1.85l-7.44.59c.21-1.41.44-2.79.68-4.18a17,17,0,0,0,3.07,1.42,28,28,0,0,0,3.83.71,7.87,7.87,0,0,0,4-.24,13.37,13.37,0,0,0,2.83-1.7C127.75,51.52,127.29,60.45,126.9,68.78Z"/><path class="cls-6" d="M121.22,22.8c-.39.52-.47,1.53.33,1.56.41,0,.69-.4.9-.76a2.09,2.09,0,0,0,.47-1.18c-.06-.5-.68-.65-1.13-.9a3,3,0,0,1-1.14-.9,5.68,5.68,0,0,1-.33-2.88,3,3,0,0,1,1.47-2.42c1-.44,2-.13,3.31,0,.23-.22.42-.3.42-.67,0-.83-1.59-1-2.65-.94a4.21,4.21,0,0,0-4,4.21C118.77,20.06,119.4,22.25,121.22,22.8Z"/><path class="cls-6" d="M115.5,15.56a5.8,5.8,0,0,0-2.75.57c-.52.31-1.25.93-1.23,1.47a.71.71,0,0,0,.48.61c.83.18,1.08-.68,1.6-.95a4,4,0,0,1,1.75-.33c.76,0,2.21.65,2.09-.57C117.36,15.58,116.13,15.59,115.5,15.56Z"/><path class="cls-6" d="M117.25,25.92c.38.07,2.6,1,3.12.24a.65.65,0,0,0-.1-.81,3.16,3.16,0,0,0-.94-.09,4.61,4.61,0,0,1-1.33-.33c-.77-.31-1.72-.87-2.13,0-.12,1.56.78,2.43,2.17,2.93.63.23,1.76.47,1.75-.22C119.77,26.74,117.54,26.83,117.25,25.92Z"/><path class="cls-11" d="M125,178.79c-.46.14-1.09.56-1.6.51s-1.25-1.06-1.75-1.55c-1.23-1.23-2.06-2.16-3.17-3.45-.64-.76-1.5-1.45-1.56-2.61,0-.95.47-1.57.57-2.36a10.87,10.87,0,0,0-.43-2.8,13,13,0,0,0-7.29-1.28,114.44,114.44,0,0,0,7.39,8.86c2.54,2.86,5.06,5.75,7.71,8.5,1.28-1.1,2.73-2,4-3.16A3.87,3.87,0,0,0,125,178.79Zm5.82-76.4c-.49-.11-1-.61-1.55-.33,0,1.35,1.19,1.57,2,2.12C131.11,103.81,130.52,103.18,130.85,102.39ZM128,169.23c-.16-.23-.59-1-.7-1s-1.1,1.27-1.28,1.42a2.57,2.57,0,0,1-1.66.61,9.07,9.07,0,0,1-2.8-1.37c-1-.59-1.87-1.08-2.78-1.57a19,19,0,0,1,.19,1.95c-.07.93-.66,1.67-.57,2.41.06.54.82,1.28,1.18,1.7,1.33,1.56,2.75,3,4.17,4.41a7.64,7.64,0,0,1,3.17-.72A6.5,6.5,0,0,1,130,178.6c1.11-.79,2.14-1.65,3.22-2.46C131.51,173.89,129.73,171.6,128,169.23Zm.15-69.39a.83.83,0,0,0,.19,1.27c.87-.86,2.45-.37,3.31.19a1.24,1.24,0,0,1,.75-.33A15.2,15.2,0,0,0,128.12,99.84Zm3.83,62.9c-1.32,1.39-2.5,2.91-3.74,4.36,2,2.78,4.08,5.42,6.06,8.19,1.21-.86,2.34-1.79,3.5-2.7C135.88,169.26,133.84,166.08,132,162.74Zm9.69-62c-4.56-.76-8.52-2.14-12.82-3.16-.24.13-.15.59-.24.89,2.25.53,4.63,1.32,7.19,1.94.71.18,1.77.25,1.81.9.06,1.13-1.39.57-2.18.38l-1.66-.38a18.09,18.09,0,0,1,1.94,1.33c.52.41,1.23,1.21,1.9,1.31s1.53-.45,2.22-.7,1.4-.57,2.08-.85C141.83,101.81,141.7,101.3,141.64,100.73Zm8.94,5.81a4.46,4.46,0,0,1-.37-.42h0l-.18-.23-.24-.36c-.56-.9-.91-1.94-1.4-2.86A35.28,35.28,0,0,0,144.24,97c-.76-.92-1.44-2-2.27-2.83A3.63,3.63,0,0,0,141.5,96c.06.78.78,1.2,1,1.9a12.72,12.72,0,0,1,.33,2.18c.11.71.25,1.39.33,2.12a5,5,0,0,1,1,.15c.73.18,2.51.71,2.51,1.5,0,1.14-1.19.43-1.79.14a3.54,3.54,0,0,0-2-.41,9.46,9.46,0,0,0-2.32.85c-1,.37-2,1.12-3.21.89-1.95-.33-2.94-2.62-4.88-3-.92.57.3,1.35.71,1.74.89.86,1.61,1.47,2.55,2.27.4.35.92,1,1.33,1.09a12,12,0,0,0,2.27.19l2.27.19c1.34.12,3,.06,3.91.59a1.4,1.4,0,0,1,.26.16,6.09,6.09,0,0,1,1.1,1.82H147a5.18,5.18,0,0,0,2.66-.85,4.75,4.75,0,0,0,1.9-2C151.22,107.18,150.89,106.86,150.58,106.54Zm14.86,112.69a10.49,10.49,0,0,0-.76,1.18c-.28.48-.63,1.3-1.08,1.47a8.51,8.51,0,0,1-2,.14l-4.15.19a9.21,9.21,0,0,1-2.08,0c-.4-.1-.83-.8-1.14-1.13a10.22,10.22,0,0,0-1.13-1.09,13.83,13.83,0,0,0-3.13-1.33s-.09-.13-.19-.09a12.39,12.39,0,0,0-3.26,1.28c-1.22.83-1.86,2.32-2.56,3.59,7.29-.11,14.43-.37,21.72-.48.06-1.3.07-2.64.09-4C165.6,219,165.48,219.17,165.44,219.23Zm.33-6.19c-3.45.09-6.94.15-10.45.18.25,1.23-.49,2-1.09,2.74a5.54,5.54,0,0,1-2.32,1.9,10.09,10.09,0,0,1,3.92,3c2.41-.05,4.7-.23,7.1-.29a15.72,15.72,0,0,1,2.84-3.74c0-1.18,0-2.43.1-3.64A.12.12,0,0,0,165.77,213Zm.1-3.28c-3.68,0-7.28.09-10.93.1a17.69,17.69,0,0,0,.23,2c3.54-.12,7.22-.1,10.74-.24v-1.71C165.91,209.85,165.91,209.78,165.87,209.76Zm22.61-45.5c-8.42-5.83-16.82-11.84-25.7-17.4-.58-.37-1.26-.78-2-1.19a6.65,6.65,0,0,0-2.51-1.08c-2.54-.15-4.56,1.45-6,2.7a9,9,0,0,0-2,2.31,8.33,8.33,0,0,0-1.18,3.12,20.3,20.3,0,0,0,.19,3.69c1.34,17.55,3.72,34.93,5.48,52,3.78,0,7.47-.07,11.22-.08.43-11.4.29-23.35.8-35,.12-2.68.1-5.82.19-8.75,0-.95-.09-2.4.29-2.7s2,0,2.74.15c6.41.93,12.91,1.88,19.25,2.83C189.28,164.81,188.72,164.43,188.48,164.26Zm7.42-67.64a4.64,4.64,0,0,1-2.17.56c-1.24-.22-1.51-2.92-1.8-4.15l-.57-2.42a16.06,16.06,0,0,1-.57-2.36,2.24,2.24,0,0,1,.19-1c.27-.31,1-.21,1.66-.28,1.13-.15,2.61-.46,2.79-1.57a2.08,2.08,0,0,0-.71-1.74c-.66-.28-1.58.2-2.37.08s-.89-.88-1.13-1.5a14,14,0,0,1-.71-2,21.21,21.21,0,0,0-1.85-1.23c-.82-.37-3.07-.16-3.07-1.17s1.31-.67,2.08-.53a6.72,6.72,0,0,1,2.17.75,19.19,19.19,0,0,1-.24-5.1,12.19,12.19,0,0,0-8.36,1.28,2.71,2.71,0,0,0-1,1.14,2.59,2.59,0,0,1,2.4,2.64,3.76,3.76,0,0,1-1.69,2.79,5.37,5.37,0,0,1-2.08.61c-.78.12-1.89.37-2-.42s.71-.71,1.61-.84a4.24,4.24,0,0,0,1.84-.58,2.41,2.41,0,0,0,1-1.61,1.43,1.43,0,0,0-.91-1.23c-.81-.28-2,.26-2.17-.47s.49-1.25.8-1.66a7.92,7.92,0,0,1,1.19-1.28,12,12,0,0,1,4.86-1.84,14.65,14.65,0,0,1,3.18,0c1,.08,2.45.08,2.69.66a4,4,0,0,1,0,1.42,17.36,17.36,0,0,0,1.76,8.76c2.43-.71,4.34.79,4.06,3.17-.22,1.9-2.46,2.71-4.54,2.79.61,2.49,1.14,5,1.9,7.37a24.51,24.51,0,0,1,7.75-1.69c0-3.55,0-6.89,0-10.36s.27-7-.58-9.85a17,17,0,0,0-1.6-3.59A9.23,9.23,0,0,0,194,65.59a15.32,15.32,0,0,0-4.63-.76c-3.54,0-6.36,1.27-8.9,2.46a27.63,27.63,0,0,0-6.91,4.4,11.08,11.08,0,0,0-3.74,7.61c-.18,1.73-.15,3.63-.37,5.3-.25,1.9-.18,3.25-1.18,4.45a6.22,6.22,0,0,1-1.61,1.18,9.27,9.27,0,0,0-1.76,1,4.53,4.53,0,0,0-1.17,2.89c0,1.4.7,2.39.7,4,0,2.61-1.85,3.49-3,5.21-.66,1.23-1.71,2.71-1.55,4.34s.94,2.45,1.55,3.65c1.76,0,3.63-.06,5.3,0,1-1.7,2.11-3.4,3.22-5.07a18.91,18.91,0,0,1,3.64-4.63c2.38-1.86,5.57-2.66,9.46-3,1.2-.11,2.64.08,3.26-.85-.21-2.51-.83-4.62-1.23-7a7.6,7.6,0,0,1-5.43-1.17c-1.42-1-2.24-2.5-2.32-5.07,0-.94,0-1.73.66-1.75s.62.83.67,1.75c.13,3.1,1.72,4.8,4.78,4.92a13.6,13.6,0,0,0,3.26-.28c.69-.18,2.35-1.11,2.46,0s-2.1,1.06-2.75,1.42c.33,1.75.75,3.46,1.09,5.34a4.45,4.45,0,0,1,.09,2.36,2.7,2.7,0,0,1-1.42,1.38c-1.54.45-4,.19-5.77.61-.17,2.1.12,3.88,1.47,4.6,1.92,1,4.74.65,6.81,0a22,22,0,0,0,5.63-2.4A76.27,76.27,0,0,0,203,95.44,23.08,23.08,0,0,0,195.9,96.62ZM205,117.9a5,5,0,0,0-1.79-3.22c-.94.09-1.86.21-2.73.37a10.85,10.85,0,0,0-5.15,2,12.58,12.58,0,0,0-1.76,2.08c-1.69,2.17-3.12,4.27-4.68,6.72,0,2.46.15,5,.29,7.47,0,.76-.1,2,.56,2,.36,0,.46-1.35.52-1.9a14.36,14.36,0,0,0-.05-4.49c-.11-.71-.31-1.66.47-1.69s.83.92,1,1.74c.28,1.76.44,2.86.8,4.49a3.45,3.45,0,0,0,.7,1.85c-.34-1.79-.7-3.93-1.09-6-.13-.74-.7-2.41.34-2.46.81,0,.8,1,.94,1.84.43,2.29.92,4.67,1.28,7,.36-.34.5-1.08.81-1.6.11-.2.27-.33.28-.48a11,11,0,0,0-.42-1.7c-.27-1.16-.55-2.28-.81-3.45-.17-.78-.65-2.2.38-2.24.8,0,.82,1.14.94,1.71.47,2.21,1,4.34,1.52,6.44.91-1.14.13-3.3.24-5,.13-2.27,1.25-3.84,1.74-5.91.21-.85.18-2.7,1.09-2.7.53,0,.66.41.72,1l1,0h0l1.85.09A4.91,4.91,0,0,0,205,117.9Zm15.39,38.32A34.82,34.82,0,0,0,209.85,149a70.11,70.11,0,0,0-7.51-2.65c-2.57-.85-5.09-1.82-7.62-2.51a8.45,8.45,0,0,1-1.89-.66c-1.61-.83-3.47-1.67-5.16-2.46-4.67-2.17-9.1-4.31-13.76-6.47-2.38-1.11-4.67-2.26-7-3.32-1.78,1.31-5.79,1.56-8,.47-2.6,2.11-4.55,4.85-6.71,7.39-6.45,7.56-12.95,15.22-19.39,22.84,2.32,3.4,4.26,7.19,6.52,10.64,1.6-1.15,3-2.39,4.64-3.79,1.07-.92,2.29-1.87,3.5-2.87.36-.3,1-.75,1.08-1a5.47,5.47,0,0,0-.13-1.47c-.26-2.49-.44-4.82-.62-7.43a19.48,19.48,0,0,1-.14-3,10.49,10.49,0,0,1,3.74-6.58c1.51-1.3,4.41-3.38,7.48-2.88,1.39.23,3,1.41,4.06,2.08,8.86,5.42,17.12,11.41,25.55,17.21,1.2.84,2.34,1.76,3.63,2.51a14,14,0,0,0,4.36,1.76,35.89,35.89,0,0,0,11,1c3.54-.34,6.95-1.11,9.37-2.85a11.42,11.42,0,0,0,4.07-5.1,6.92,6.92,0,0,0,.7-2.31C221.55,157.26,220.8,156.6,220.4,156.22Zm.81-5.11c-1.1-4.1-2.51-8.09-3.83-12.05-1.77-5.27-3.67-10.4-5.58-15.62-3.72-.07-7.32-.25-11-.33-.26,2.18-1.62,3.76-1.79,6.1-.11,1.36.42,2.65.18,4.11-.18,1.12-.87,3.33-2.13,3.18-.45-.06-.58-.38-.75-.81-.39.61-.58,1.25-1.18,1.56-1.49.77-3.35-.78-3.64-2-.27.62-.4,1.31-1.09,1.51a1.94,1.94,0,0,1-2.37-1.09,16.48,16.48,0,0,0-1.13,3.08,13,13,0,0,0,2.12,1.14,58.12,58.12,0,0,0,6.81,2.92c3.24,1.05,6.56,2.09,9.8,3.18,6.5,2.17,12.14,5.21,16.27,9.69A13.87,13.87,0,0,0,221.21,151.11Z"/><path class="cls-6" d="M187.39,81.23l-.29,1a.95.95,0,0,1-1.82-.54l.3-1a.94.94,0,1,1,1.81.54Z"/><path class="cls-6" d="M179,87.33a9.51,9.51,0,0,1-.38-6.91,26.8,26.8,0,0,1,1.08-3.67l-.94-.54a15.32,15.32,0,0,1,3.13-2.6c2.62-1.88,8.09-.76,8.09-.76a50.62,50.62,0,0,0,.14,5.21c.21,1.44,2.32,5.11,2.32,5.11s2.58-.77,3.26,1c1.52,4.05-4.07,4.35-4.07,4.35s1.54,6.85,1.71,8,1.95,0,3.54-.85,5.68-.85,5.68-.85.88-13.93-.52-20.68-6.37-9-11.4-10-12.15,3.51-16.12,5.8-5.41,8.1-5.45,13.5-2.34,6.37-4.64,7.71-.83,4.93-.76,7.43S160,103.8,159,106.4s2.22,6.24,2.22,6.24l5.63-.38s4.28-7,7-9.7,10.76-2.89,12.16-3.36.66-2.31.66-2.31l-1.18-6.15S181,92.38,179,87.33Z"/><path class="cls-11" d="M190.4,131.87l3.4-9.37,6.48-1.23s0,1.76,0,2.65-1.15,2.92-1.9,4.78.2,3.14.29,4a5.12,5.12,0,0,1-1.14,3c-.61.82-1.42-1.65-1.42-1.65s-.68,1.7-1.13,2.55-2-.33-2-.33Z"/><path class="cls-1" d="M167.65,162.68l24.83,3.17s5.18,3.35,17.41,2.51c10.85-.75,12.68-10.88,12.68-10.88a44.32,44.32,0,0,0-8-6.91c-5.73-4.08-19.78-7.29-19.78-7.29l-27.34-13.05a17.79,17.79,0,0,1-4.4,1.23,14.58,14.58,0,0,1-5.06-.76l-26,30.8,7.34,11.78L149.2,165l5.25,44.43,12.2-.57Z"/><path class="cls-3" d="M204,121.83a3.63,3.63,0,0,1-2.17,1.22h-.08a.6.6,0,0,1-.59-.5.61.61,0,0,1,.5-.69,2.59,2.59,0,0,0,.48-.12h0a3.33,3.33,0,0,0,1.73-3.67,3.82,3.82,0,0,0-1.41-2.51,2.36,2.36,0,0,0-1.81-.49.27.27,0,0,1-.13,0,.58.58,0,0,1,0-1.15,3.52,3.52,0,0,1,2.69.71.5.5,0,0,0,.08.07A5,5,0,0,1,205,117.9,4.91,4.91,0,0,1,204,121.83Z"/><path class="cls-4" d="M151.75,106.33a1.46,1.46,0,0,1,0,.42,1.91,1.91,0,0,1-.2.74,4.75,4.75,0,0,1-1.9,2,5.18,5.18,0,0,1-2.66.85h-.06a3,3,0,0,1-.92-.17,1,1,0,0,1-.28-.14,1.52,1.52,0,0,1-.73-.92.49.49,0,0,1,0-.21.6.6,0,0,1,.42-.52l.16,0a.58.58,0,0,1,.57.43s0,.19.3.28a3.3,3.3,0,0,0,2.59-.58c1.05-.65,1.59-1.48,1.57-2v-.05c0-.08,0-.26-.37-.37h0a.59.59,0,0,1-.42-.59,1.31,1.31,0,0,1,0-.15.6.6,0,0,1,.43-.4.54.54,0,0,1,.31,0A1.66,1.66,0,0,1,151.75,106.33Z"/><path class="cls-12" d="M187,124.9s-4.41-.13-5.83-1.47a7,7,0,0,1-1.84-3l-.85-.32-11.12,9.78,18.6,9.43,2-6,.29-6.29Zm.72,7.81a6.4,6.4,0,0,1-.58,1.33c-.59,1.36-1.19,2.78-1.65,4.15-5.68-2.75-11.52-5.37-17.16-8.18,3.64-2.87,7.08-5.94,10.55-9,1.14,2.82,3.56,4.38,7.51,4.39a18,18,0,0,1,1.14,1.57c0,1.29.05,2.36.09,3.55A14.94,14.94,0,0,1,187.72,132.71ZM187,124.9s-4.41-.13-5.83-1.47a7,7,0,0,1-1.84-3l-.85-.32-11.12,9.78,18.6,9.43,2-6,.29-6.29Zm.72,7.81a6.4,6.4,0,0,1-.58,1.33c-.59,1.36-1.19,2.78-1.65,4.15-5.68-2.75-11.52-5.37-17.16-8.18,3.64-2.87,7.08-5.94,10.55-9,1.14,2.82,3.56,4.38,7.51,4.39a18,18,0,0,1,1.14,1.57c0,1.29.05,2.36.09,3.55A14.94,14.94,0,0,1,187.72,132.71ZM187,124.9s-4.41-.13-5.83-1.47a7,7,0,0,1-1.84-3l-.85-.32-11.12,9.78,18.6,9.43,2-6,.29-6.29Zm.72,7.81a6.4,6.4,0,0,1-.58,1.33c-.59,1.36-1.19,2.78-1.65,4.15-5.68-2.75-11.52-5.37-17.16-8.18,3.64-2.87,7.08-5.94,10.55-9,1.14,2.82,3.56,4.38,7.51,4.39a18,18,0,0,1,1.14,1.57c0,1.29.05,2.36.09,3.55A14.94,14.94,0,0,1,187.72,132.71Z"/><path class="cls-12" d="M230.39,121.83c1.38-1.7,1.44-5.58.28-7.66a27.8,27.8,0,0,0-4.31-5.21,71.46,71.46,0,0,0-15.65-12.91A12.61,12.61,0,0,0,203.28,94c0-3.55.05-7.14.05-10.74s.23-7.28-.76-10.12c-1.9-5.54-5.09-9.09-12.11-9.6a20.36,20.36,0,0,0-9.89,2.17,33.38,33.38,0,0,0-7.43,4.49,12.11,12.11,0,0,0-4.49,7.43c-.3,1.63-.29,3.77-.42,5.53-.07.86-.21,1.83-.28,2.7a4,4,0,0,1-.71,2.27c-.94,1.1-2.46,1.32-3.37,2.27a5.41,5.41,0,0,0-1.5,4.11c.09,1.35.77,2.32.65,3.93s-1.17,2.29-2,3.27a13,13,0,0,0-2,3.27,6.43,6.43,0,0,0-.45,4.08,7.68,7.68,0,0,0,.83,2,4.11,4.11,0,0,0,1.32,1.57c2.21,1.29,4.89.54,5.11.1-.78,1.46-1.84,3-2.7,4.54C159.69,114,156,110,152.47,106.45A10.72,10.72,0,0,1,151,105c-.34-.56-.54-1.22-.85-1.81a29,29,0,0,0-3-4.87c-.76-.91-1.62-1.78-2.42-2.83-.45-.6-1.58-2.58-2.55-2.7-1.35-.18-1.91,1.79-1.94,3-.05,1.42,1.15,2.19,1.22,3.45-3.28-.29-6.45-1.5-9.64-2.31-1.11-.28-3.21-1.19-4-.23a1.85,1.85,0,0,0-.38.9c-.07.33,0,.72-.08,1.13s-.62.75-.72,1.42c-.2,1.5,1.08,1.94,1.52,2.64.23.38.3.89.51,1.18a3.08,3.08,0,0,0,.48.48,21.77,21.77,0,0,0,3.88,2,18.75,18.75,0,0,1,2,.94c.75.5,1.11,1.19,1.7,1.33a34,34,0,0,0,4.07.38c.64.06,1.38.08,2.07.14a7.81,7.81,0,0,1,1.95.24c.5.22,1.33,2.13,1.6,2.64,2.49,4.7,5,9.25,7.58,13.73a16.83,16.83,0,0,0,3.59,4.87,43.51,43.51,0,0,0-4.21,4.68q-13.77,16.11-27.53,32.5c-.32.38-.91,1-1.18,1-.44.05-1.41-.66-1.76-.85-1.75-1-3-1.74-5-2.65A14.08,14.08,0,0,0,114,164c-1.54-.24-5.69-.79-5.82,1-.07.88,1.26,2.25,1.7,2.8,4,5,8.25,9.47,12.54,14.24.3.33.64.75,1,1.18s.77,1,1.18,1c.57.06,1.33-.78,1.84-1.18,3.77-2.94,7.29-5.62,11.13-8.57.27-.21.65-.63.8-.65s.61.27.84.24c.43-.06.89-.58,1.28-.9,2.71-2.23,5.58-4.7,8.19-6.77,1.56,15.18,3.29,30.72,5.06,45.93a7,7,0,0,1,.14,1.47,4.91,4.91,0,0,1-.94,1.42,5.15,5.15,0,0,1-1.18,1.13,19.32,19.32,0,0,1-3.37,1.14,7.94,7.94,0,0,0-5,3.87c-.26.41-.48.91-.77,1.47s-.72,1.19-.42,1.71,1.74.37,2.79.32c6.38-.24,12.44-.35,18.82-.47.9,0,2.58.15,3-.23s.28-2.56.29-3.65c0-3.78.1-7.75.27-11.39.25-5.22.18-10.34.34-15.28.32-10.34.35-20.38.67-30.56,6.73.93,13.73,2,20.66,3a12.65,12.65,0,0,0,2.94.34c.18,0,.84.44,1.09.57,2.29,1.14,5.53,1.55,8.7,1.89,8,.85,14.76-.92,18.39-5.34a13.88,13.88,0,0,0,3.18-8.95,17.29,17.29,0,0,0-.86-4.35c-2.58-9.41-6.07-18-9.13-27,3.11.09,6.17.19,9.37.19S229,123.55,230.39,121.83Zm-8.52,33.82c-4.13-4.48-9.77-7.52-16.27-9.69-3.24-1.09-6.56-2.13-9.8-3.18a58.12,58.12,0,0,1-6.81-2.92,13,13,0,0,1-2.12-1.14,16.48,16.48,0,0,1,1.13-3.08,1.94,1.94,0,0,0,2.37,1.09c.69-.2.82-.89,1.09-1.51.29,1.25,2.15,2.8,3.64,2,.6-.31.79-.95,1.18-1.56.17.43.3.75.75.81,1.26.15,1.95-2.06,2.13-3.18.24-1.46-.29-2.75-.18-4.11.17-2.34,1.53-3.92,1.79-6.1,3.71.08,7.31.26,11,.33,1.91,5.22,3.81,10.35,5.58,15.62,1.32,4,2.73,7.95,3.83,12.05A13.87,13.87,0,0,1,221.87,155.65ZM216.81,165c-2.42,1.74-5.83,2.51-9.37,2.85a35.89,35.89,0,0,1-11-1,14,14,0,0,1-4.36-1.76c-1.29-.75-2.43-1.67-3.63-2.51-8.43-5.8-16.69-11.79-25.55-17.21-1.1-.67-2.67-1.85-4.06-2.08-3.07-.5-6,1.58-7.48,2.88a10.49,10.49,0,0,0-3.74,6.58,19.48,19.48,0,0,0,.14,3c.18,2.61.36,4.94.62,7.43a5.47,5.47,0,0,1,.13,1.47c-.07.25-.72.7-1.08,1-1.21,1-2.43,2-3.5,2.87-1.62,1.4-3,2.64-4.64,3.79-2.26-3.45-4.2-7.24-6.52-10.64,6.44-7.62,12.94-15.28,19.39-22.84,2.16-2.54,4.11-5.28,6.71-7.39,2.22,1.09,6.23.84,8-.47,2.33,1.06,4.62,2.21,7,3.32,4.66,2.16,9.09,4.3,13.76,6.47,1.69.79,3.55,1.63,5.16,2.46a8.45,8.45,0,0,0,1.89.66c2.53.69,5.05,1.66,7.62,2.51a70.11,70.11,0,0,1,7.51,2.65,34.82,34.82,0,0,1,10.55,7.19c.4.38,1.15,1,1.18,1.38a6.92,6.92,0,0,1-.7,2.31A11.42,11.42,0,0,1,216.81,165ZM170,162.09c-.76-.11-2.3-.5-2.74-.15s-.26,1.75-.29,2.7c-.09,2.93-.07,6.07-.19,8.75-.51,11.62-.37,23.57-.8,35-3.75,0-7.44.09-11.22.08-1.76-17.1-4.14-34.48-5.48-52a20.3,20.3,0,0,1-.19-3.69,8.33,8.33,0,0,1,1.18-3.12,9,9,0,0,1,2-2.31c1.45-1.25,3.47-2.85,6-2.7a6.65,6.65,0,0,1,2.51,1.08c.72.41,1.4.82,2,1.19,8.88,5.56,17.28,11.57,25.7,17.4.24.17.8.55.75.66C182.89,164,176.39,163,170,162.09ZM154.23,216c.6-.76,1.34-1.51,1.09-2.74,3.51,0,7-.09,10.45-.18a.12.12,0,0,1,.1.13c-.05,1.21-.05,2.46-.1,3.64a15.72,15.72,0,0,0-2.84,3.74c-2.4.06-4.69.24-7.1.29a10.09,10.09,0,0,0-3.92-3A5.54,5.54,0,0,0,154.23,216Zm.71-6.1c3.65,0,7.25-.1,10.93-.1,0,0,0,.09,0,.15v1.71c-3.52.14-7.2.12-10.74.24A17.69,17.69,0,0,1,154.94,209.86ZM109.8,165.25a13,13,0,0,1,7.29,1.28,10.87,10.87,0,0,1,.43,2.8c-.1.79-.62,1.41-.57,2.36.06,1.16.92,1.85,1.56,2.61,1.11,1.29,1.94,2.22,3.17,3.45.5.49,1.19,1.52,1.75,1.55s1.14-.37,1.6-.51a3.87,3.87,0,0,1,3.84.66c-1.24,1.13-2.69,2.06-4,3.16-2.65-2.75-5.17-5.64-7.71-8.5A114.44,114.44,0,0,1,109.8,165.25Zm17.47,3c.11,0,.54.76.7,1,1.76,2.37,3.54,4.66,5.25,6.91-1.08.81-2.11,1.67-3.22,2.46a6.5,6.5,0,0,0-3.11-1.52,7.64,7.64,0,0,0-3.17.72c-1.42-1.38-2.84-2.85-4.17-4.41-.36-.42-1.12-1.16-1.18-1.7-.09-.74.5-1.48.57-2.41a19,19,0,0,0-.19-1.95c.91.49,1.74,1,2.78,1.57a9.07,9.07,0,0,0,2.8,1.37,2.57,2.57,0,0,0,1.66-.61C126.17,169.51,127.1,168.24,127.27,168.24Zm7,7c-2-2.77-4.09-5.41-6.06-8.19,1.24-1.45,2.42-3,3.74-4.36,1.89,3.34,3.93,6.52,5.82,9.85C136.61,173.5,135.48,174.43,134.27,175.29Zm12.64-64.94a6.09,6.09,0,0,0-1.1-1.82,1.4,1.4,0,0,0-.26-.16c-.91-.53-2.57-.47-3.91-.59l-2.27-.19a12,12,0,0,1-2.27-.19c-.41-.12-.93-.74-1.33-1.09-.94-.8-1.66-1.41-2.55-2.27-.41-.39-1.63-1.17-.71-1.74,1.94.35,2.93,2.64,4.88,3,1.25.23,2.25-.52,3.21-.89a9.46,9.46,0,0,1,2.32-.85,3.54,3.54,0,0,1,2,.41c.6.29,1.79,1,1.79-.14,0-.79-1.78-1.32-2.51-1.5a5,5,0,0,0-1-.15c-.08-.73-.22-1.41-.33-2.12a12.72,12.72,0,0,0-.33-2.18c-.26-.7-1-1.12-1-1.9a3.63,3.63,0,0,1,.47-1.74c.83.88,1.51,1.91,2.27,2.83a35.28,35.28,0,0,1,4.13,5.63c.49.92.84,2,1.4,2.86l.24.36.18.23h0a4.46,4.46,0,0,0,.37.42c.31.32.64.64.95.95,3.68,3.68,7.2,7.45,10.79,11.12a.74.74,0,0,0,.42,1.28c.53,0,.79-.58,1.08-1.08,2-3.28,4-6.55,5.92-9.61,1.17-1.84,2.29-3.7,3.55-5.3s3.36-2.51,5.67-3.17c-.54,4.84,2.59,6.61,7,6.3a19.54,19.54,0,0,0,6-1.71c4.95-2.09,8.52-5.69,12.25-9,.33-.3.83-.81,1.09-.85a6.63,6.63,0,0,1,2.17.56,12.6,12.6,0,0,1,1.9.9,58.45,58.45,0,0,1,9.74,6.87,85.37,85.37,0,0,1,8.27,8.31,12.85,12.85,0,0,1,2.32,3.23c.81,2,.59,5.3-1.13,6.2a9,9,0,0,1-3.26.75,55.89,55.89,0,0,1-6.06-.05c-5.05-.24-10.3-.19-15.26-.38l-1.85-.09h0l-1,0c-.06-.54-.19-1-.72-1-.91,0-.88,1.85-1.09,2.7-.49,2.07-1.61,3.64-1.74,5.91-.11,1.72.67,3.88-.24,5-.5-2.1-1-4.23-1.52-6.44-.12-.57-.14-1.72-.94-1.71-1,0-.55,1.46-.38,2.24.26,1.17.54,2.29.81,3.45a11,11,0,0,1,.42,1.7c0,.15-.17.28-.28.48-.31.52-.45,1.26-.81,1.6-.36-2.29-.85-4.67-1.28-7-.14-.79-.13-1.88-.94-1.84-1,0-.47,1.72-.34,2.46.39,2.08.75,4.22,1.09,6a3.45,3.45,0,0,1-.7-1.85c-.36-1.63-.52-2.73-.8-4.49-.13-.82-.18-1.79-1-1.74s-.58,1-.47,1.69a14.36,14.36,0,0,1,.05,4.49c-.06.55-.16,1.87-.52,1.9-.66.06-.53-1.23-.56-2-.14-2.47-.29-5-.29-7.47,1.56-2.45,3-4.55,4.68-6.72a12.58,12.58,0,0,1,1.76-2.08,10.85,10.85,0,0,1,5.15-2c.87-.16,1.79-.28,2.73-.37s1.84-.14,2.76-.19c3.08-.13,6.32-.22,9.59-.32.78,0,2.61.19,2.61-.76s-1.55-.67-2.37-.66a19.54,19.54,0,0,1-2.92.09c-.27,0-.65-.39-.91-.52-1.67-.84-3-1.51-4.72-2.37-.5-.23-2.59-1.55-2.56-.09,0,.5.65.77,1.09,1,1.51.76,2.76,1.31,4.16,2.09-5.64.24-11.14.19-14.61,2.46a16.52,16.52,0,0,0-4.08,4.45c-1.19,1.66-2.29,3.42-3.45,5.11-.34-1-1.44-.9-2.55-1-3.47-.32-6-2.77-5.58-6.71a6.65,6.65,0,0,1,.84-2.27c.24-.43,1.18-1.47,1.14-2s-.69-1-1.09-1.47-.71-1.19-1.42-1.13a.62.62,0,0,0-.61.65c0,.83,1.27,1.37,1.52,2.09a8,8,0,0,0-1.66,6.38c-2,2-4.1,3.71-6.3,5.58-1,.87-2.06,1.84-3.16,2.75a15.79,15.79,0,0,1-3.55,2.41,8,8,0,0,1-7.38-.85,10.2,10.2,0,0,1-1.75-2.36c-3.26-5.11-6-10.39-8.93-15.81C147.18,110.92,147.05,110.63,146.91,110.35Zm-18.6-9.24a.83.83,0,0,1-.19-1.27,15.2,15.2,0,0,1,4.25,1.13,1.24,1.24,0,0,0-.75.33C130.76,100.74,129.18,100.25,128.31,101.11Zm.51-3.54c4.3,1,8.26,2.4,12.82,3.16.06.57.19,1.08.24,1.66-.68.28-1.29.56-2.08.85s-1.47.84-2.22.7-1.38-.9-1.9-1.31a18.09,18.09,0,0,0-1.94-1.33l1.66.38c.79.19,2.24.75,2.18-.38,0-.65-1.1-.72-1.81-.9-2.56-.62-4.94-1.41-7.19-1.94C128.67,98.16,128.58,97.7,128.82,97.57Zm2,4.82c-.33.79.26,1.42.48,1.79-.84-.55-2-.77-2-2.12C129.87,101.78,130.36,102.28,130.85,102.39Zm30.56,1c1.18-1.72,3-2.6,3-5.21,0-1.58-.71-2.57-.7-4a4.53,4.53,0,0,1,1.17-2.89,9.27,9.27,0,0,1,1.76-1,6.22,6.22,0,0,0,1.61-1.18c1-1.2.93-2.55,1.18-4.45.22-1.67.19-3.57.37-5.3a11.08,11.08,0,0,1,3.74-7.61,27.63,27.63,0,0,1,6.91-4.4c2.54-1.19,5.36-2.48,8.9-2.46a15.32,15.32,0,0,1,4.63.76,9.23,9.23,0,0,1,5.72,4.68,17,17,0,0,1,1.6,3.59c.85,2.81.58,6.29.58,9.85s0,6.81,0,10.36a24.51,24.51,0,0,0-7.75,1.69c-.76-2.34-1.29-4.88-1.9-7.37,2.08-.08,4.32-.89,4.54-2.79.28-2.38-1.63-3.88-4.06-3.17a17.36,17.36,0,0,1-1.76-8.76,4,4,0,0,0,0-1.42c-.24-.58-1.72-.58-2.69-.66a14.65,14.65,0,0,0-3.18,0,12,12,0,0,0-4.86,1.84A7.92,7.92,0,0,0,179,74.71c-.31.41-1,1.07-.8,1.66s1.36.19,2.17.47a1.43,1.43,0,0,1,.91,1.23,2.41,2.41,0,0,1-1,1.61,4.24,4.24,0,0,1-1.84.58c-.9.13-1.66.13-1.61.84s1.17.54,2,.42a5.37,5.37,0,0,0,2.08-.61,3.76,3.76,0,0,0,1.69-2.79,2.59,2.59,0,0,0-2.4-2.64,2.71,2.71,0,0,1,1-1.14,12.19,12.19,0,0,1,8.36-1.28,19.19,19.19,0,0,0,.24,5.1,6.72,6.72,0,0,0-2.17-.75c-.77-.14-2.08-.43-2.08.53s2.25.8,3.07,1.17a21.21,21.21,0,0,1,1.85,1.23,14,14,0,0,0,.71,2c.24.62.45,1.41,1.13,1.5s1.71-.36,2.37-.08a2.08,2.08,0,0,1,.71,1.74c-.18,1.11-1.66,1.42-2.79,1.57-.65.07-1.39,0-1.66.28a2.24,2.24,0,0,0-.19,1,16.06,16.06,0,0,0,.57,2.36l.57,2.42c.29,1.23.56,3.93,1.8,4.15a4.64,4.64,0,0,0,2.17-.56,23.08,23.08,0,0,1,7.1-1.18,76.27,76.27,0,0,1-8.71,7.19,22,22,0,0,1-5.63,2.4c-2.07.62-4.89,1-6.81,0-1.35-.72-1.64-2.5-1.47-4.6,1.73-.42,4.23-.16,5.77-.61a2.7,2.7,0,0,0,1.42-1.38,4.45,4.45,0,0,0-.09-2.36c-.34-1.88-.76-3.59-1.09-5.34.65-.36,2.86-.29,2.75-1.42s-1.77-.18-2.46,0a13.6,13.6,0,0,1-3.26.28c-3.06-.12-4.65-1.82-4.78-4.92,0-.92.12-1.78-.67-1.75s-.69.81-.66,1.75c.08,2.57.9,4,2.32,5.07a7.6,7.6,0,0,0,5.43,1.17c.4,2.34,1,4.45,1.23,7-.62.93-2.06.74-3.26.85-3.89.32-7.08,1.12-9.46,3a18.91,18.91,0,0,0-3.64,4.63c-1.11,1.67-2.18,3.37-3.22,5.07-1.67-.11-3.54,0-5.3,0-.61-1.2-1.41-2.09-1.55-3.65S160.75,104.57,161.41,103.34ZM188.28,127l-.29,6.29-2,6-18.6-9.43,11.12-9.78.85.32a7,7,0,0,0,1.84,3c1.42,1.34,5.83,1.47,5.83,1.47ZM146.47,219.9a12.39,12.39,0,0,1,3.26-1.28c.1,0,.15.07.19.09a13.83,13.83,0,0,1,3.13,1.33,10.22,10.22,0,0,1,1.13,1.09c.31.33.74,1,1.14,1.13a9.21,9.21,0,0,0,2.08,0l4.15-.19a8.51,8.51,0,0,0,2-.14c.45-.17.8-1,1.08-1.47a10.49,10.49,0,0,1,.76-1.18c0-.06.16-.27.28-.19,0,1.33,0,2.67-.09,4-7.29.11-14.43.37-21.72.48C144.61,222.22,145.25,220.73,146.47,219.9Z"/><path class="cls-12" d="M165.87,213.17c-.05,1.21-.05,2.46-.1,3.64a15.72,15.72,0,0,0-2.84,3.74c-2.4.06-4.69.24-7.1.29a10.09,10.09,0,0,0-3.92-3,5.54,5.54,0,0,0,2.32-1.9c.6-.76,1.34-1.51,1.09-2.74,3.51,0,7-.09,10.45-.18A.12.12,0,0,1,165.87,213.17Z"/><path class="cls-12" d="M165.72,219c0,1.33,0,2.67-.09,4-7.29.11-14.43.37-21.72.48.7-1.27,1.34-2.76,2.56-3.59a12.39,12.39,0,0,1,3.26-1.28c.1,0,.15.07.19.09a13.83,13.83,0,0,1,3.13,1.33,10.22,10.22,0,0,1,1.13,1.09c.31.33.74,1,1.14,1.13a9.21,9.21,0,0,0,2.08,0l4.15-.19a8.51,8.51,0,0,0,2-.14c.45-.17.8-1,1.08-1.47a10.49,10.49,0,0,1,.76-1.18C165.48,219.17,165.6,219,165.72,219Z"/><path class="cls-12" d="M133.22,176.14c-1.08.81-2.11,1.67-3.22,2.46a6.5,6.5,0,0,0-3.11-1.52,7.64,7.64,0,0,0-3.17.72c-1.42-1.38-2.84-2.85-4.17-4.41-.36-.42-1.12-1.16-1.18-1.7-.09-.74.5-1.48.57-2.41a19,19,0,0,0-.19-1.95c.91.49,1.74,1,2.78,1.57a9.07,9.07,0,0,0,2.8,1.37,2.57,2.57,0,0,0,1.66-.61c.18-.15,1.11-1.42,1.28-1.42s.54.76.7,1C129.73,171.6,131.51,173.89,133.22,176.14Z"/><path class="cls-12" d="M128.87,179.45c-1.24,1.13-2.69,2.06-4,3.16-2.65-2.75-5.17-5.64-7.71-8.5a114.44,114.44,0,0,1-7.39-8.86,13,13,0,0,1,7.29,1.28,10.87,10.87,0,0,1,.43,2.8c-.1.79-.62,1.41-.57,2.36.06,1.16.92,1.85,1.56,2.61,1.11,1.29,1.94,2.22,3.17,3.45.5.49,1.19,1.52,1.75,1.55s1.14-.37,1.6-.51A3.87,3.87,0,0,1,128.87,179.45Z"/><path class="cls-12" d="M228.54,121.51a9,9,0,0,1-3.26.75,55.89,55.89,0,0,1-6.06-.05c-5.05-.24-10.3-.19-15.26-.38a4.91,4.91,0,0,0,1-3.93,5,5,0,0,0-1.79-3.22c.91-.09,1.84-.14,2.76-.19,3.08-.13,6.32-.22,9.59-.32.78,0,2.61.19,2.61-.76s-1.55-.67-2.37-.66a19.54,19.54,0,0,1-2.92.09c-.27,0-.65-.39-.91-.52-1.67-.84-3-1.51-4.72-2.37-.5-.23-2.59-1.55-2.56-.09,0,.5.65.77,1.09,1,1.51.76,2.76,1.31,4.16,2.09-5.64.24-11.14.19-14.61,2.46a16.52,16.52,0,0,0-4.08,4.45c-1.19,1.66-2.29,3.42-3.45,5.11-.34-1-1.44-.9-2.55-1-3.47-.32-6-2.77-5.58-6.71a6.65,6.65,0,0,1,.84-2.27c.24-.43,1.18-1.47,1.14-2s-.69-1-1.09-1.47-.71-1.19-1.42-1.13a.62.62,0,0,0-.61.65c0,.83,1.27,1.37,1.52,2.09a8,8,0,0,0-1.66,6.38c-2,2-4.1,3.71-6.3,5.58-1,.87-2.06,1.84-3.16,2.75a15.79,15.79,0,0,1-3.55,2.41,8,8,0,0,1-7.38-.85,10.2,10.2,0,0,1-1.75-2.36c-3.26-5.11-6-10.39-8.93-15.81-.15-.26-.28-.55-.42-.83H147a5.18,5.18,0,0,0,2.66-.85,4.75,4.75,0,0,0,1.9-2c3.68,3.68,7.2,7.45,10.79,11.12a.74.74,0,0,0,.42,1.28c.53,0,.79-.58,1.08-1.08,2-3.28,4-6.55,5.92-9.61,1.17-1.84,2.29-3.7,3.55-5.3s3.36-2.51,5.67-3.17c-.54,4.84,2.59,6.61,7,6.3a19.54,19.54,0,0,0,6-1.71c4.95-2.09,8.52-5.69,12.25-9,.33-.3.83-.81,1.09-.85a6.63,6.63,0,0,1,2.17.56,12.6,12.6,0,0,1,1.9.9,58.45,58.45,0,0,1,9.74,6.87,85.37,85.37,0,0,1,8.27,8.31,12.85,12.85,0,0,1,2.32,3.23C230.48,117.31,230.26,120.61,228.54,121.51Z"/><path class="cls-12" d="M194,84.32c-.27-.09-.61.06-1.09.09-.76.06-1.63-.08-1.65.62,0,1.1,3.1.68,3.17-.1A.5.5,0,0,0,194,84.32Z"/><path class="cls-12" d="M180,86.3c1.19.13,2-.5,3.22-.51-.05.45-.43.8-1.19.89s-1.67-.23-1.51.66,2.63.21,3-.09a2.08,2.08,0,0,0,.8-1.89c-.37-1.07-2.07-.56-3.17-.28C180.25,85.3,179.28,85.47,180,86.3Z"/><path class="cls-7" d="M194.33,219.51a4.12,4.12,0,1,1-4.11-4.11A4.11,4.11,0,0,1,194.33,219.51Z"/><path class="cls-7" d="M215.39,219.51a4.12,4.12,0,1,1-4.12-4.11A4.11,4.11,0,0,1,215.39,219.51Z"/><path class="cls-7" d="M224.28,219.51a4.12,4.12,0,1,1-4.11-4.11A4.11,4.11,0,0,1,224.28,219.51Z"/><path class="cls-7" d="M204.88,219.51a4.12,4.12,0,1,1-4.11-4.11A4.11,4.11,0,0,1,204.88,219.51Z"/><path class="cls-4" d="M190.22,224.22a4.71,4.71,0,1,1,4.71-4.71A4.71,4.71,0,0,1,190.22,224.22Zm0-8.23a3.53,3.53,0,1,0,3.52,3.52A3.53,3.53,0,0,0,190.22,216Z"/><path class="cls-4" d="M211.27,224.22a4.71,4.71,0,1,1,4.71-4.71A4.71,4.71,0,0,1,211.27,224.22Zm0-8.23a3.53,3.53,0,1,0,3.53,3.52A3.53,3.53,0,0,0,211.27,216Z"/><path class="cls-4" d="M220.17,224.22a4.71,4.71,0,1,1,4.7-4.71A4.71,4.71,0,0,1,220.17,224.22Zm0-8.23a3.53,3.53,0,1,0,3.52,3.52A3.53,3.53,0,0,0,220.17,216Z"/><path class="cls-4" d="M200.77,224.22a4.71,4.71,0,1,1,4.71-4.71A4.71,4.71,0,0,1,200.77,224.22Zm0-8.23a3.53,3.53,0,1,0,3.52,3.52A3.53,3.53,0,0,0,200.77,216Z"/><path class="cls-10" d="M231.16,128.18V147a5.68,5.68,0,0,1-5.68,5.68H199.27a5.68,5.68,0,0,1-5.68-5.68V128.18a5.68,5.68,0,0,1,5.68-5.68h26.21A5.68,5.68,0,0,1,231.16,128.18Z"/><path class="cls-3" d="M225.48,153.23H199.27A6.27,6.27,0,0,1,193,147V128.18a6.27,6.27,0,0,1,6.27-6.27h26.21a6.27,6.27,0,0,1,6.27,6.27V147A6.27,6.27,0,0,1,225.48,153.23Zm-26.21-30.14a5.1,5.1,0,0,0-5.08,5.09V147a5.09,5.09,0,0,0,5.08,5.09h26.21a5.1,5.1,0,0,0,5.09-5.09V128.18a5.1,5.1,0,0,0-5.09-5.09Z"/><path class="cls-6" d="M208.91,179.38V213a2.28,2.28,0,0,1-2.27,2.28h-3.5a2.28,2.28,0,0,1-2.28-2.28V179.38a2.28,2.28,0,0,1,2.28-2.27h3.5A2.27,2.27,0,0,1,208.91,179.38Z"/><path class="cls-6" d="M222.57,214a1.84,1.84,0,0,1-1.84,1.85H189.27a1.85,1.85,0,1,1,0-3.69h31.46A1.84,1.84,0,0,1,222.57,214Z"/><path class="cls-6" d="M192.82,214.59v1.61a2.37,2.37,0,0,1-2.36,2.37H190a2.37,2.37,0,0,1-2.36-2.37v-1.61a2.36,2.36,0,0,1,2.36-2.36h.48A2.36,2.36,0,0,1,192.82,214.59Z"/><path class="cls-6" d="M222.63,214.59v1.61a2.37,2.37,0,0,1-2.37,2.37h-.47a2.37,2.37,0,0,1-2.37-2.37v-1.61a2.37,2.37,0,0,1,2.37-2.36h.47A2.37,2.37,0,0,1,222.63,214.59Z"/><path class="cls-6" d="M213.87,214.59v1.61a2.36,2.36,0,0,1-2.36,2.37H211a2.37,2.37,0,0,1-2.37-2.37v-1.61a2.37,2.37,0,0,1,2.37-2.36h.47A2.36,2.36,0,0,1,213.87,214.59Z"/><path class="cls-6" d="M203.37,214.59v1.61a2.37,2.37,0,0,1-2.36,2.37h-.48a2.37,2.37,0,0,1-2.36-2.37v-1.61a2.36,2.36,0,0,1,2.36-2.36H201A2.36,2.36,0,0,1,203.37,214.59Z"/><path class="cls-6" d="M227.92,174.34v1.89a3.79,3.79,0,0,1-3.78,3.79H184.65a3.79,3.79,0,0,1-3.78-3.79v-1.89a3.79,3.79,0,0,1,3.78-3.79h39.49A3.79,3.79,0,0,1,227.92,174.34Z"/><path class="cls-3" d="M224.15,166H184.84a5.44,5.44,0,0,0-5.45,5.43v4.12a2.61,2.61,0,0,0,2.6,2.61h45a2.61,2.61,0,0,0,2.61-2.61v-4.12A5.44,5.44,0,0,0,224.15,166Zm4,9.55a1.19,1.19,0,0,1-1.19,1.19H182a1.19,1.19,0,0,1-1.18-1.19v-4.12a4,4,0,0,1,4-4h39.31a4,4,0,0,1,4,4Z"/><path class="cls-13" d="M228.17,171.45v4.12a1.19,1.19,0,0,1-1.19,1.19H182a1.19,1.19,0,0,1-1.18-1.19v-4.12a4,4,0,0,1,4-4h39.31A4,4,0,0,1,228.17,171.45Z"/><path class="cls-6" d="M225.31,143.39V145a4.73,4.73,0,0,1-4.73,4.73h-6.39a4.73,4.73,0,0,1-4.73-4.73v-1.65a4.73,4.73,0,0,1,4.73-4.73h6.39A4.73,4.73,0,0,1,225.31,143.39Z"/><path class="cls-6" d="M225.36,174v1.89a3.79,3.79,0,0,1-3.78,3.79h-6.53a3.79,3.79,0,0,1-3.79-3.79V174a3.79,3.79,0,0,1,3.79-3.79h6.53A3.79,3.79,0,0,1,225.36,174Z"/><path class="cls-7" d="M222.53,145.28v27.58a3.17,3.17,0,1,1-6.34,0V145.28a3.17,3.17,0,1,1,6.34,0Z"/><path class="cls-4" d="M219.35,176.62a3.77,3.77,0,0,1-3.76-3.76V145.28a3.77,3.77,0,0,1,7.53,0v27.58A3.77,3.77,0,0,1,219.35,176.62Zm0-33.92a2.57,2.57,0,0,0-2.57,2.58v27.58a2.58,2.58,0,1,0,5.15,0V145.28A2.57,2.57,0,0,0,219.35,142.7Z"/><path class="cls-14" d="M58.52,75.26c-.25-.28-.66-.6-.66-1,0-.56.71-1,1-1.28.86-.86,1.38-1.46,2.18-2.36.27-.31,1-.89,1-1.23a4.45,4.45,0,0,0-.9-1.89,7.4,7.4,0,0,0-5-3.21c-.37-.09-.32,0-.13.32.65,1.23,1.68,3.19,1,5-.6,1.44-2.39,3.47-4.27,3.69a11.31,11.31,0,0,1-5.34-1,8.36,8.36,0,0,1-3.12-2c-.86-.89-1.45-2-2.27-2.89s-1.54-1.82-2.41-2.7c-2.91.74-5.53,1.75-6.82,4.12,2,1.54,4.1,2.83,5.72,4.82A17,17,0,0,1,41,79,6.54,6.54,0,0,1,41.54,81a5,5,0,0,1-.76,1.61c-1.93,3.47-4,7-5.77,10.46H49.82c1.17-1.56,1.91-2.76,3-4.35.3-.43.74-1.16,1.14-1.33a7.15,7.15,0,0,1,1.42-.24c3.23-.57,6-2.71,5.67-6.8A8.12,8.12,0,0,0,58.52,75.26Zm1.9-32c-.17-.31-.42-.92-.72-1.09-1-.52-2.63.75-2.88,1.33-.68,1.55.65,3,1.52,3.6.3.2,1,.4,1.09.89s-.29.89-.48,1.19-.38.75-.85.76c-.85,0-.82-1-.33-1.52A11.4,11.4,0,0,1,56.1,47a4.31,4.31,0,0,1-.32-4.39,4.4,4.4,0,0,1,2.88-1.79,7.22,7.22,0,0,0-1.79-2,50.66,50.66,0,0,1-8.38,10.37c-.44.43-.94,1.06-1.51,1.14s-1.84-.72-2.56-.15a2,2,0,0,0-.32,1.75c.21.74,1.28,1.16,2,1.37s2.36.22,2.46,1a9.39,9.39,0,0,1-.33,2.13,20.7,20.7,0,0,1-1.52,5.86c-.91,1.73-3.44,1.52-5.48,2.1a5.33,5.33,0,0,0,1,1.27c.36.41.73.83,1.09,1.28a30.63,30.63,0,0,0,2,2.64,7.93,7.93,0,0,0,3.12,1.66c1.35.47,3.57,1.17,4.92.42a5.23,5.23,0,0,0,2.41-3,4.79,4.79,0,0,0-.67-2.65,11.92,11.92,0,0,0-1.28-2c-.83-.15-2,.09-2.22-.65A5.1,5.1,0,0,1,52,61.45c.43-1.63,1-3.59,1.37-5.11-.67-.12-1.37-.14-1.42-.8-.09-1.16,1.28-.55,2-.43,4.49.81,7.54-2.25,7.81-6.28A10.05,10.05,0,0,0,60.42,43.28ZM37,39.27a11.42,11.42,0,0,0,.57,8.23,7.88,7.88,0,0,0,5.25,4.59c-.42-2.27.77-3.85,3-3.5a7,7,0,0,0,1,.24c.4,0,1.18-1,1.56-1.43a50.08,50.08,0,0,0,7.76-9.94c.34-.56.73-1.62,1.27-1.64.92,0,.82,1.19.29,1.6.75.84,1.52,1.67,2.27,2.51,1.6-2.87-1.48-5-3.5-6-3.94-1.9-11-1.87-14.9,0A9,9,0,0,0,37,39.27Zm2.93,13.1c-.07-.25-.73-.55-1-.76a11.35,11.35,0,0,1-3.83-8.41,11,11,0,0,1,3.45-8.81,7.13,7.13,0,0,0,.91-.84c-.69-1-1.07-2.73-2.51-2.85a8.12,8.12,0,0,0-4.64,1.52,6.86,6.86,0,0,0-2.51,3.6,28,28,0,0,0-1.37,4.73c-.31,1.72-.5,3.57-.66,5.43-.63,7.28-1.48,15.1-6.29,18.17a19.45,19.45,0,0,1-3.65,1.42,8.43,8.43,0,0,0-3,1.7,11.22,11.22,0,0,0-2,2.7,7.68,7.68,0,0,0-1.23,4.64,4.26,4.26,0,0,0,2.5,3.73c.4.2,1.66.47,1.86,1s-.23,1-.39,1.51a5.82,5.82,0,0,0-.38,1.6,4.23,4.23,0,0,0,1.76,3.41,10.21,10.21,0,0,0,3.31,1,6.21,6.21,0,0,0,3.64-.42c1.73-4.71,3.62-9.68,5.63-14.24,1-2.34,2-4.65,3.69-6.25s4.18-2.2,7-2.88c-.1-3-.25-6.29-.34-9.46A9,9,0,0,0,39.88,52.37Zm24,44.2s0-1.27,0-3.27c-.1,1.79-.2,3.11-.2,3.11l1.09,1.28Zm4.31,5.24-.41-.51-.51-.62a9.25,9.25,0,0,0-1-.2c-.17-.19-.33-.38-.48-.58-.86-1-1.71-2.07-2.53-3.11.19-6.44,0-13.32-.28-19.68a34.19,34.19,0,0,0-.62-6.24c-1.1,1-1.76,2.43-2.89,3.4,2,1.94,3.85,5.53,2.56,9.22-1.06,3-3.74,4.89-7.42,5.21-.25.52-.85.83-1,1.38A12.69,12.69,0,0,0,54,92.76,29.32,29.32,0,0,0,55.59,100a47.42,47.42,0,0,0,3.29,6.5c.2.35.39.68.58,1a3.09,3.09,0,0,0,0,.32l-.57-.6a4.32,4.32,0,0,0,.55,1.57.75.75,0,0,0,.61.33.74.74,0,0,0,.37-.1.73.73,0,0,0,.33-.71.82.82,0,0,0-.1-.26s0,0,0-.09a3,3,0,0,1-.29-2,5.92,5.92,0,0,1,4.87-4.67,2.65,2.65,0,0,1,2.48.89h0l.14.14h0a.6.6,0,0,0,.16.08.85.85,0,0,0,.22,0,.73.73,0,0,0,.42-.14Z"/><path class="cls-14" d="M13.9,126.65a1.62,1.62,0,0,1,.44,0,1.36,1.36,0,0,0,0-.2Zm-6.85,1.62-.09.27a1.48,1.48,0,0,1,.26-.3Zm-1.51,4.31.14.16v-.57ZM52.47,91.82c-.63.76-1.13,1.65-1.75,2.41.86,1.2,1.75,2.34,2.6,3.55C53,96,52.64,93.89,52.47,91.82ZM87.8,209.56a6.32,6.32,0,0,1-2.13-.61,6.67,6.67,0,0,1-.94-2.14c-.36-.92-.6-1.66-.9-2.31-3.68,1.72-7.26,3.53-10.88,5.3,1.11,2.12,2.29,4.17,3.4,6.3,2.21.52,3.43,2.05,4.54,3.68,2.49-1.23,4.91-2.54,7.34-3.83a7.44,7.44,0,0,1,2.65-6A9.38,9.38,0,0,1,87.8,209.56Z"/><path class="cls-14" d="M41.3,154.79A8.67,8.67,0,0,1,37,156.48c.51-2.3.92-4.68,1.56-6.85C39.43,151.37,40.4,153,41.3,154.79Z"/><path class="cls-14" d="M63.92,149.53c-1.48-3.61-2.88-7.27-4.32-10.93.58-.07,1.12-.18,1.67-.27.06,0,0,.07,0,.14.82,3.38,1.71,7.16,2.61,10.45C64,149.07,64.11,149.4,63.92,149.53Z"/><path class="cls-14" d="M69.69,150.81a7,7,0,0,1-3.65.29c-1.49-4.42-2.49-9.35-3.59-14.15,1.22-.28,2.79-1,4.17-.76.82.18,1.18,2.15,1.41,3.08A62.58,62.58,0,0,1,69.69,150.81Z"/><path class="cls-15" d="M83.31,203.17C79.6,205,76,206.8,72.24,208.57c-1.75-3.33-3.6-6.55-5.35-9.89,4.18-1.85,8.39-3.69,12.5-5.63C80.74,196.38,82,199.78,83.31,203.17Z"/><path class="cls-14" d="M10.89,133.64a4.94,4.94,0,0,1-1,.13c-.34-1.5-.55-4.22.14-5.53a2.86,2.86,0,0,1,1.13,0A12.6,12.6,0,0,0,10.89,133.64Z"/><path class="cls-14" d="M8.33,133.21a2.53,2.53,0,0,1-1.28-.43,6.74,6.74,0,0,1,1.23-3.59A23.42,23.42,0,0,0,8.33,133.21Z"/><path class="cls-14" d="M85,124.6c-.08.45-.1,1.3-.53,1.23s-.26-.73-.27-1.09a16.43,16.43,0,0,0-1.06-5.91c-.22-.53-.43-1.58-1.23-1.55-1.31,0-.25,1.56,0,2.17a17.47,17.47,0,0,1,.91,6.14c-.91-.2-1.14-1.07-1.47-2a13.13,13.13,0,0,0-.57-1.42c-.79-1.73-2.29-3-3.63-4.3-.44-.43-1.5-1.76-2.28-1.7-1,.06-.89,1.59-.61,2.45.34,1.11,1.53,2,.57,3-.41-1.39-1.47-2-2.28-2.89a8.94,8.94,0,0,1-1.41-2.64c-.22-.59-.57-2.76-1-3-.18-.11-.55-.06-.75-.14a7.85,7.85,0,0,1-1.19-.66c-2.42-1.36-4.84-2.63-7.34-3.87a.82.82,0,0,0-.1-.26s0,0,0-.09a3,3,0,0,1-.29-2,5.92,5.92,0,0,1,4.87-4.67,2.65,2.65,0,0,1,2.48.89h0l.14.14h0a.6.6,0,0,0,.16.08.85.85,0,0,0,.22,0,.65.65,0,0,0,.42-.14L79,114.86l.45.54s.37.11,1,.32a.09.09,0,0,1,0,0c.35.2.68.43,1,.67a10.26,10.26,0,0,1,3.21,3C85.3,120.68,85.19,123,85,124.6Z"/><path class="cls-14" d="M25.13,131.65a3.12,3.12,0,0,1-.24,1.75c-.53.8-2.2.55-3.55.52a13.38,13.38,0,0,1-3-.32c.18-.59.24-1,.7-1.23,1-.52,3.24.5,3.22-.82,0-1.13-2.46-.69-3.36-.56-1-.51-2.53.1-3.74.14.08-.72-.11-1.23-.66-1.23-.83,0-.75,1.22-.89,2.23a1,1,0,0,1,0,.15h0L13.05,134a.71.71,0,0,1-.56.12,9,9,0,0,1-.37-2.88c0-.74,0-2.18.56-2.75S14.77,128,16,128c1,.05,3.06.71,2.84-.6-.16-1-2.27-.58-3.12-.76.71-5.25,1.44-10.34,2.36-15.25a.7.7,0,0,0,.16.13,9.56,9.56,0,0,0,5.1,1.38,7.35,7.35,0,0,0,2.46-.37l.29-.1c-1,4.42-1.95,8.81-2.95,13.3a5.43,5.43,0,0,0-.27,1.71c.1.42.62.37.84.61a7.55,7.55,0,0,1,.76,1.71A12.48,12.48,0,0,1,25.13,131.65Z"/><path class="cls-14" d="M93.62,138.18c-.16,3.8-2.3,7.06-5.11,8.28A29.24,29.24,0,0,1,83,147.64c-3.78.73-8,1-12,1.46a70.19,70.19,0,0,0-2.31-12.63c.7,0,1.12-.41,1.84-.33a9.49,9.49,0,0,1,1.7.81l3.46,1.56c.53.25,2.27,1.21,2.27,0,0-.78-1.84-1.28-2.56-1.61-6.65-3.1-13.67-6.24-20.11-9.23-1.26-3.21-2.53-6.42-3.78-9.65.45-.6.86-1.11,1.47-1.89.3-.39,1.47-1.39,1.27-2.13a.67.67,0,0,0-.57-.42c-.5-.05-.83.48-1.13.85l-1.75,2.22c-.31.39-.73.75-.76,1.23a7.53,7.53,0,0,0,.71,2.12c.79,2.05,1.75,4.38,2.47,6.2,7.56,19.25,15.32,39,22.71,58a55,55,0,0,0-7,2.74c-2.24,1-4.5,2-6.76,3-9.5-17-18.87-34.76-28.53-51.95a79,79,0,0,1-4.63-8.8,44.46,44.46,0,0,1-2.18-7.9c-.13-.69-.2-1.49-.37-2.12a4,4,0,0,1-.23-.62,11.56,11.56,0,0,1,.41-2q1.15-5.1,2.24-10c.28-1.36.52-2.74.89-4a11.38,11.38,0,0,1,1.14-2c1.11-2,2.16-4,3.26-5.91,5,0,9.93-.07,14.94,0a79,79,0,0,1,7.29,10.65c.3.55.75,1.11,1.14,1.79a10.13,10.13,0,0,0,1.08,1.9,6.87,6.87,0,0,0,1.33.65c3.21,1.62,6.31,3.17,9.22,5a13.06,13.06,0,0,0,2.46,5.3c.44.5.93.83,1.28,1.32.48.67.81,2.14,1.85,2.14s1.85-1.42,1.84-2.6a4.42,4.42,0,0,0-.89-2.09c.09-.1.31.19.41.28a16.79,16.79,0,0,1,3.09,3.41c.65,1.06.79,2.4,1.42,3.4a3.55,3.55,0,0,0,2.17,1.52,7.49,7.49,0,0,0,.9,0c.55,0,1.13.28,1.65.1s.7-.86.86-1.57a7.77,7.77,0,0,1,1.74,1.47,24.67,24.67,0,0,1,4.41,5.68A11.85,11.85,0,0,1,93.62,138.18Z"/><path class="cls-8" d="M92.35,132.74a24.67,24.67,0,0,0-4.41-5.68,7.77,7.77,0,0,0-1.74-1.47c-.16.71-.27,1.38-.86,1.57s-1.1-.08-1.65-.1a7.49,7.49,0,0,1-.9,0,3.55,3.55,0,0,1-2.17-1.52c-.63-1-.77-2.34-1.42-3.4a16.79,16.79,0,0,0-3.09-3.41c-.1-.09-.32-.38-.41-.28a4.42,4.42,0,0,1,.89,2.09c0,1.18-.94,2.59-1.84,2.6s-1.37-1.47-1.85-2.14c-.35-.49-.84-.82-1.28-1.32a13.06,13.06,0,0,1-2.46-5.3c-2.91-1.8-6-3.35-9.22-5a6.87,6.87,0,0,1-1.33-.65,10.13,10.13,0,0,1-1.08-1.9c-.39-.68-.84-1.24-1.14-1.79A79,79,0,0,0,49.1,94.47c-5,0-10,0-14.94,0-1.1,2-2.15,3.91-3.26,5.91a11.38,11.38,0,0,0-1.14,2c-.37,1.29-.61,2.67-.89,4q-1.08,4.92-2.24,10a11.56,11.56,0,0,0-.41,2,4,4,0,0,0,.23.62c.17.63.24,1.43.37,2.12a44.46,44.46,0,0,0,2.18,7.9,79,79,0,0,0,4.63,8.8c9.66,17.19,19,34.91,28.53,51.95,2.26-1,4.52-2,6.76-3a55,55,0,0,1,7-2.74c-7.39-19-15.15-38.75-22.71-58-.72-1.82-1.68-4.15-2.47-6.2a7.53,7.53,0,0,1-.71-2.12c0-.48.45-.84.76-1.23l1.75-2.22c.3-.37.63-.9,1.13-.85a.67.67,0,0,1,.57.42c.2.74-1,1.74-1.27,2.13-.61.78-1,1.29-1.47,1.89,1.25,3.23,2.52,6.44,3.78,9.65,6.44,3,13.46,6.13,20.11,9.23.72.33,2.56.83,2.56,1.61,0,1.25-1.74.29-2.27,0L72.24,137a9.49,9.49,0,0,0-1.7-.81c-.72-.08-1.14.37-1.84.33A70.19,70.19,0,0,1,71,149.1c4-.45,8.19-.73,12-1.46a29.24,29.24,0,0,0,5.53-1.18c2.81-1.22,4.95-4.48,5.11-8.28A11.85,11.85,0,0,0,92.35,132.74Z"/><path class="cls-10" d="M40.47,51.56l.33,11.92a35.31,35.31,0,0,1-3.73.85c-1.5.21-3.76,1.51-5.68,5.16s-4.73,16.28-4.73,16.28-7,3.76-11-.53c-2.45-2.59-.42-6-.42-6s-4.53-.42-4.31-6.63,6.23-7.63,9.75-8.94,3.87-4.16,5.06-7.71,1.6-15.74,3.55-21.1,6.19-5.47,8-5.16,3,3.55,3,3.55,1-1.07,6.63-2,10.3,1.92,13.29,4.07-.42,4.82-.42,4.82L57,37a46.6,46.6,0,0,1-4.68,7.09,40.51,40.51,0,0,1-6,5s-1.83,0-2.46.85.1,2.93.1,2.93Z"/><path class="cls-1" d="M58.52,75.26c-.25-.28-.66-.6-.66-1,0-.56.71-1,1-1.28.86-.86,1.38-1.46,2.18-2.36.27-.31,1-.89,1-1.23a4.45,4.45,0,0,0-.9-1.89,7.4,7.4,0,0,0-5-3.21c-.37-.09-.32,0-.13.32.65,1.23,1.68,3.19,1,5-.6,1.44-2.39,3.47-4.27,3.69a11.31,11.31,0,0,1-5.34-1,8.36,8.36,0,0,1-3.12-2c-.86-.89-1.45-2-2.27-2.89s-1.54-1.82-2.41-2.7c-2.91.74-5.53,1.75-6.82,4.12,2,1.54,4.1,2.83,5.72,4.82A17,17,0,0,1,41,79,6.54,6.54,0,0,1,41.54,81a5,5,0,0,1-.76,1.61c-1.93,3.47-4,7-5.77,10.46H49.82c1.17-1.56,1.91-2.76,3-4.35.3-.43.74-1.16,1.14-1.33a7.15,7.15,0,0,1,1.42-.24c3.23-.57,6-2.71,5.67-6.8A8.12,8.12,0,0,0,58.52,75.26Zm5.65,10c-.06-1.65-.11-4.48-.31-7.54.14,5,.13,11.6.09,15.53C64.1,90.7,64.24,87.24,64.17,85.24ZM65.83,99.9c-.86-1-1.71-2.07-2.53-3.11.19-6.44,0-13.32-.28-19.68a34.19,34.19,0,0,0-.62-6.24c-1.1,1-1.76,2.43-2.89,3.4,2,1.94,3.85,5.53,2.56,9.22-1.06,3-3.74,4.89-7.42,5.21-.25.52-.85.83-1,1.38A12.69,12.69,0,0,0,54,92.76,29.32,29.32,0,0,0,55.59,100a47.42,47.42,0,0,0,3.29,6.5c.2.35.39.68.58,1a9.38,9.38,0,0,1,1.64-5.21c1.34-2,3.8-2,5.21-1.84C66.14,100.29,66,100.1,65.83,99.9Zm1,.13-2-2.34L66.75,100l.56.67.08,0Z"/><path class="cls-7" d="M50.11,94.38l3.83-6.1s5.56.16,6.86-4.21c1.85-6.23-2.74-9.18-2.74-9.18l-2-4.83S54.16,72.72,52,73s-6-2-6-2L41,81.09,33.5,94.15Z"/><path class="cls-6" d="M59.58,45.3l-.19,1A1,1,0,1,1,57.53,46l.19-1a1,1,0,0,1,1.13-.89A1,1,0,0,1,59.58,45.3Z"/><path class="cls-6" d="M53.14,46.05l-.19,1a1,1,0,1,1-1.86-.35l.19-1a1,1,0,1,1,1.86.35Z"/><path class="cls-1" d="M89.86,209.49a12.66,12.66,0,0,1-3.69-.85l-1.94-4.82-12.06,5.72,4.25,7.85a2.82,2.82,0,0,1,2,.57,8.38,8.38,0,0,1,2.37,2.51l8.28-4.12a12.23,12.23,0,0,1,.8-4c.84-2.25,3.74-3.59,3.74-3.59S90.92,209.37,89.86,209.49Z"/><path class="cls-6" d="M37.29,36.74a12.9,12.9,0,0,1,3.26-3.17l-1-1.9a11.6,11.6,0,0,0-4,4c-1.72,2.82.14,4.59.14,4.59A32.75,32.75,0,0,1,37.29,36.74Z"/><path class="cls-4" d="M64.76,190.06a.58.58,0,0,1-.52-.31C64,189.35,43,149.5,37.75,140.32,26.63,120.71,26.67,110.41,26.67,110a.63.63,0,0,1,.6-.58.59.59,0,0,1,.59.6c0,.1,0,10.46,10.92,29.74,5.21,9.19,26.29,49,26.5,49.46a.6.6,0,0,1-.25.8A.63.63,0,0,1,64.76,190.06Z"/><path class="cls-4" d="M69.62,142.45a.7.7,0,0,1-.7-.62.71.71,0,0,1,.61-.8l11.86-1.54.93-.54L52.8,124.3a.71.71,0,0,1-.32-1,.7.7,0,0,1,1-.32l30.71,15.23a.73.73,0,0,1,.39.62.69.69,0,0,1-.36.63L82,140.79a.66.66,0,0,1-.27.09l-12,1.56Z"/><path class="cls-16" d="M143.14,78l-5.93-3.43a.69.69,0,0,0-.71,0L130.56,78a.7.7,0,0,0-.36.61v6.86a.7.7,0,0,0,.36.61l5.94,3.43a.64.64,0,0,0,.35.1.7.7,0,0,0,.36-.1l5.93-3.43a.7.7,0,0,0,.36-.61V78.61A.7.7,0,0,0,143.14,78Z"/><polygon class="cls-7" points="166.35 21.73 154.9 27.82 166.35 33.9 166.35 21.73"/><path class="cls-16" d="M166.35,34.61a.76.76,0,0,1-.33-.08l-11.46-6.09a.71.71,0,0,1,0-1.25L166,21.1a.7.7,0,0,1,.7,0,.72.72,0,0,1,.34.61V33.9a.7.7,0,0,1-.71.71Zm-9.94-6.79,9.23,4.9V22.91Z"/><path class="cls-7" d="M76.56,45.75a6.2,6.2,0,1,0-6.2-6.2A6.2,6.2,0,0,0,76.56,45.75Z"/><path class="cls-16" d="M76.56,46.69a7.14,7.14,0,1,1,7.13-7.14A7.15,7.15,0,0,1,76.56,46.69Zm0-12.4a5.26,5.26,0,1,0,5.26,5.26A5.27,5.27,0,0,0,76.56,34.29Z"/><path class="cls-13" d="M165.59,33.23a.52.52,0,0,1-.27-.07l-9.09-4.82a.6.6,0,0,1-.31-.52.61.61,0,0,1,.31-.53l9.09-4.82a.6.6,0,0,1,.58,0,.59.59,0,0,1,.28.51v9.65a.59.59,0,0,1-.28.51A.68.68,0,0,1,165.59,33.23Zm-7.82-5.41L165,31.66V24Z"/><path class="cls-13" d="M76.56,45.58a6,6,0,1,1,6-6A6,6,0,0,1,76.56,45.58Zm0-10.88a4.85,4.85,0,1,0,4.85,4.85A4.85,4.85,0,0,0,76.56,34.7Z"/><path class="cls-13" d="M136.85,88.62a.67.67,0,0,1-.3-.08l-5.18-3a.58.58,0,0,1-.29-.51v-6a.61.61,0,0,1,.29-.52l5.18-3a.64.64,0,0,1,.6,0l5.18,3a.61.61,0,0,1,.29.52v6a.58.58,0,0,1-.29.51l-5.18,3A.64.64,0,0,1,136.85,88.62Zm-4.59-3.93,4.59,2.65,4.59-2.65v-5.3l-4.59-2.65-4.59,2.65Z"/><path class="cls-6" d="M54.22,50.24a.68.68,0,0,0-.86.38c-.26,1,1.27,1.82,2.18,1.84.72,0,1.82-.09,1.94-.7.28-1.36-1.41-.54-2.18-.71C54.79,50.93,54.71,50.36,54.22,50.24Z"/><path class="cls-6" d="M47.31,50.53c-.52-.13-2.61-.34-2.46.66.1.68,3,.78,3,0C47.92,50.6,47.54,50.58,47.31,50.53Z"/><path class="cls-1" d="M55,128.79,58.9,138l2.75-.85a5.83,5.83,0,0,0,.19-1C61.9,135.6,64,135.4,66,135s2.31,1,2.31,1l1-.9Zm12.21,6.08a7.62,7.62,0,0,0-4,.42c-1.13.32-2.6.46-2.17,1.66-.61.12-1.23.24-1.89.32-1-2.55-2.14-5.2-3-7.75,4,1.91,8.19,3.72,12.21,5.63C67.94,135.4,67.62,135,67.18,134.87ZM55,128.79,58.9,138l2.75-.85a5.83,5.83,0,0,0,.19-1C61.9,135.6,64,135.4,66,135s2.31,1,2.31,1l1-.9Zm12.21,6.08a7.62,7.62,0,0,0-4,.42c-1.13.32-2.6.46-2.17,1.66-.61.12-1.23.24-1.89.32-1-2.55-2.14-5.2-3-7.75,4,1.91,8.19,3.72,12.21,5.63C67.94,135.4,67.62,135,67.18,134.87ZM55,128.79,58.9,138l2.75-.85a5.83,5.83,0,0,0,.19-1C61.9,135.6,64,135.4,66,135s2.31,1,2.31,1l1-.9Zm12.21,6.08a7.62,7.62,0,0,0-4,.42c-1.13.32-2.6.46-2.17,1.66-.61.12-1.23.24-1.89.32-1-2.55-2.14-5.2-3-7.75,4,1.91,8.19,3.72,12.21,5.63C67.94,135.4,67.62,135,67.18,134.87ZM45.6,53.66A5.06,5.06,0,0,1,43.76,53l-3.13-.85.15,11.22a32.55,32.55,0,0,0,4.73-1c1.42-.53,2.17-8.7,2.17-8.7A5.26,5.26,0,0,1,45.6,53.66Zm-.41,8.27c-.84.7-2.43.37-3.6.85-.07-3.26-.3-6.61-.29-9.8a6.74,6.74,0,0,0,2.7.77,7.51,7.51,0,0,0,3,1.08c-.17,1.17-.37,2.48-.66,3.78C46.15,59.56,45.82,61.39,45.19,61.93Zm-33,65.18a6.8,6.8,0,0,1-1-.24,5.86,5.86,0,0,0-1.18-.05c-.69.07-.88.55-1.33.72-.18.06-.37,0-.52,0a1.93,1.93,0,0,0-.38.19,2.46,2.46,0,0,0-.59.46l1.24-.16.91-.9,2.46.43,2.07-1A14.38,14.38,0,0,1,12.21,127.11Zm-6.53,5.06L7,128.54A10.18,10.18,0,0,0,5.68,132.17Z"/><path class="cls-12" d="M101.76,208.09a14.26,14.26,0,0,0-6.63-.65c-1.35.26-2.7.75-4.11,1a10.84,10.84,0,0,1-4.36-.56c-2-5.14-4-10.39-6-15.52.52-1.54-.24-2.79-.77-4.22a11.61,11.61,0,0,0-1.47-3.36c-.23-.27-.72-.43-.94-.7a11.24,11.24,0,0,1-.8-2c-3.89-9.8-7.66-19.71-11.53-29.36-.12-.29-.22-.57-.34-.86.06-.08.16.08.19.09a1.64,1.64,0,0,0,.32.27,1.93,1.93,0,0,0,.86.36c1.17.19,3.57,0,4.44-.67a2.22,2.22,0,0,0,.62-1.42c4.48-.37,9.06-1,13-1.7,1-.19,2-.34,2.84-.54.31-.06.6-.13.89-.21h0a5.25,5.25,0,0,0,.67-.22,7.44,7.44,0,0,0,1.37-.64,11,11,0,0,0,5-9.7A13.58,13.58,0,0,0,92.3,130l-.43-.56a.43.43,0,0,0-.07-.1c-.2-.25-.41-.5-.62-.74s-.65-.75-1-1.1a31.06,31.06,0,0,0-2.73-2.79c-.39-.33-1-.61-1-1a15.17,15.17,0,0,0-.33-4.25,6.17,6.17,0,0,0-2-2.7A31.35,31.35,0,0,0,80,113.82c-.47-.31-1-.57-1.46-.9a12.14,12.14,0,0,1-1.75-2c-2.67-3.21-5.35-6.4-8-9.55l-4.16-5c0-3.66.23-7.54,0-11.4s-.22-7.46-.48-10.88c0-.16,0-.3,0-.45-.06-.73-.14-1.43-.23-2.08a21.77,21.77,0,0,0-.53-2.34c-1.31-4.4-4.81-6.44-10.26-6.77.49-2,1.07-3.87,1.56-5.86,7.35.68,10.44-8,6.86-13.91-.25-.4.1-.59,0-1s-.61-.4-.75-.65c0,0,0,0,0,0a5.82,5.82,0,0,0,.88-2.11,4,4,0,0,0,0-1.15A5.37,5.37,0,0,0,60.23,35a11.77,11.77,0,0,0-5.36-3,18.16,18.16,0,0,0-2.11-.48h0a25.39,25.39,0,0,0-6.35-.19.24.24,0,0,0-.12,0h-.22a15.08,15.08,0,0,0-5.45,1.51c-.75-1.39-1.41-3.22-3.23-3.5a7.49,7.49,0,0,0-4.2.81,8.1,8.1,0,0,0-3.08,2.08c-1.56,1.81-2.35,4.81-2.93,7.33a42.18,42.18,0,0,0-.85,6.29l-.21,2.54c0,.12,0,.23,0,.35a41.71,41.71,0,0,1-1.61,8.69,10,10,0,0,1-3,5A5.73,5.73,0,0,1,20,63.3a4.55,4.55,0,0,1-.51.21c-1.13.44-2.23.73-3.22,1.16a8.3,8.3,0,0,0-3,2.18,11.11,11.11,0,0,0-3.18,7.09A6,6,0,0,0,14.34,80a5.81,5.81,0,0,0,1.42,6.73,8.13,8.13,0,0,0,3.31,1.31,8.06,8.06,0,0,0,4.11.1q-.9,2.46-1.77,5c-.07.22-.14.45-.22.67s-.14.42-.22.64a117.06,117.06,0,0,0-3.27,11.85c-.12.55-.24,1.1-.34,1.64s-.27,1.32-.39,2c-1,5.3-1.83,10.82-2.61,16.46a1.36,1.36,0,0,1,0,.2,1.62,1.62,0,0,0-.44,0l-.71.33-1.32.61,0,0-2.46-.43-.91.9-1.24.16a1.48,1.48,0,0,0-.26.3l-1.28,3.63v1c.35,1.2,1.66,1.23,2.94,1.56.45.12.76.43,1.09.47a7.08,7.08,0,0,0,1.51-.13,2.39,2.39,0,0,0,1.19.51c1.87.19,2.4-1.27,2.49-2.95v0c.79-.11,1.58-.21,2.37-.29a4.37,4.37,0,0,0-.34,1.15,1.45,1.45,0,0,0,.06.74c.42,1.19,2.75,1.12,4.35,1.18a9,9,0,0,0,3.64-.29,1.72,1.72,0,0,0,.58-.38,2.88,2.88,0,0,0,.86-1.43,4.39,4.39,0,0,0,.13-1.64,10.79,10.79,0,0,0-1-2.74c-.14-.35-.31-.84-.51-1.32a5.15,5.15,0,0,1-.57-1.33,4.76,4.76,0,0,1,.24-1.13c.26-1.18.46-2.12.8-3.31a36.09,36.09,0,0,0,3.89,11.5c.25.5.51,1,.79,1.48.17.33.35.65.52,1,2.31,4.11,4.65,8.08,6.86,12.34-.06.25-.13.52-.18.78-.13.48-.24,1-.34,1.46-.06.24-.11.47-.16.71s-.11.47-.15.71c-.26,1.17-.51,2.35-.77,3.53,0,.15-.09.35-.15.59-.2.64-.41,1.52-.14,1.83s1.27.05,1.7,0a11,11,0,0,0,3.88-1.42c.18-.12.41-.36.62-.28q9.48,17.22,18.92,34.53c-.89.5-2.43.75-2.18,2.46a8.68,8.68,0,0,0,.9,1.85c.32.66.61,1.29.9,1.89.63,1.28,1.2,2.73,2.42,3.12s1.93-.31,2.73-.52c4.39,8.17,8.77,16.05,13.2,24.17.31.57.55,1.33,1.09,1.42s1.24-.39,1.85-.66c5.22-2.29,10.19-4.45,15.14-7a11.71,11.71,0,0,0,3-1.94,16.25,16.25,0,0,0,2.94-4.45c.28-.55.77-1.38.66-1.84S102.4,208.28,101.76,208.09ZM7.05,132.78a6.74,6.74,0,0,1,1.23-3.59,23.42,23.42,0,0,0,.05,4A2.53,2.53,0,0,1,7.05,132.78Zm3.84.86a4.94,4.94,0,0,1-1,.13c-.34-1.5-.55-4.22.14-5.53a2.86,2.86,0,0,1,1.13,0A12.6,12.6,0,0,0,10.89,133.64ZM66,151.1c-1.49-4.42-2.49-9.35-3.59-14.15,1.22-.28,2.79-1,4.17-.76.82.18,1.18,2.15,1.41,3.08.09.37.18.75.26,1.13s.13.61.19.92c.11.52.2,1,.3,1.56s.18,1.05.26,1.57.12.79.17,1.2c.1.66.18,1.33.24,2,0,.41.07.8.11,1.21s0,.67.07,1,.05.66.06,1A7,7,0,0,1,66,151.1Zm-4.77-12.77c.06,0,0,.07,0,.14.82,3.38,1.71,7.16,2.61,10.45,0,.15.19.48,0,.61-1.48-3.61-2.88-7.27-4.32-10.93C60.18,138.53,60.72,138.42,61.27,138.33ZM58.9,138,55,128.79l13.53,5.94.71.3.1.05-.1.08-.71.65-.19.17s-.33-1.4-2.31-1-4.1.62-4.16,1.18a5.83,5.83,0,0,1-.19,1Zm8.8-35.76h0l.14.14c2.66,3.17,5.38,6.35,8,9.52A12.19,12.19,0,0,0,77.68,114a15.59,15.59,0,0,0,1.31.86c.47.28.94.55,1.41.86a.09.09,0,0,1,0,0c.35.2.68.43,1,.67a10.26,10.26,0,0,1,3.21,3c.62,1.23.51,3.5.29,5.15-.08.45-.1,1.3-.53,1.23s-.26-.73-.27-1.09a16.43,16.43,0,0,0-1.06-5.91c-.22-.53-.43-1.58-1.23-1.55-1.31,0-.25,1.56,0,2.17a17.47,17.47,0,0,1,.91,6.14c-.91-.2-1.14-1.07-1.47-2a13.13,13.13,0,0,0-.57-1.42c-.79-1.73-2.29-3-3.63-4.3-.44-.43-1.5-1.76-2.28-1.7-1,.06-.89,1.59-.61,2.45.34,1.11,1.53,2,.57,3-.41-1.39-1.47-2-2.28-2.89a8.94,8.94,0,0,1-1.41-2.64c-.22-.59-.57-2.76-1-3-.18-.11-.55-.06-.75-.14a7.85,7.85,0,0,1-1.19-.66c-2.42-1.36-4.84-2.63-7.34-3.87a.82.82,0,0,0-.1-.26s0,0,0-.09a3,3,0,0,1-.29-2,5.92,5.92,0,0,1,4.87-4.67A2.65,2.65,0,0,1,67.7,102.21ZM62.56,71.59c.06.29.1.59.14.89s0,.32.06.49.05.46.06.7c.11,1.13.14,2.28.2,3.44.32,6.36.47,13.24.28,19.68.82,1,1.67,2.07,2.53,3.11a3.32,3.32,0,0,0-.77,0,7.38,7.38,0,0,0-6.12,5.85,3.76,3.76,0,0,0-.06.74,47.42,47.42,0,0,1-3.29-6.5A29.32,29.32,0,0,1,54,92.76a12.69,12.69,0,0,1-.29-2.68c.11-.55.71-.86,1-1.38,3.68-.32,6.36-2.17,7.42-5.21,1.29-3.69-.54-7.28-2.56-9.22a5.71,5.71,0,0,0,.55-.55q.18-.19.36-.42c.31-.38.59-.77.88-1.17a5,5,0,0,1,.41-.5,5.51,5.51,0,0,1,.69-.76C62.46,71.1,62.51,71.34,62.56,71.59ZM56.1,64.3a7.4,7.4,0,0,1,5,3.21A4.45,4.45,0,0,1,62,69.4c0,.34-.72.92-1,1.23l-.9,1c-.2.23-.39.43-.6.66l-.32.33-.36.36-.27.24-.21.18-.12.12a.75.75,0,0,0-.17.19.54.54,0,0,0-.1.16.46.46,0,0,0-.08.19.45.45,0,0,0,0,.2.59.59,0,0,0,0,.14,1.47,1.47,0,0,0,.37.59s.06.06.1.11a.19.19,0,0,1,.07.06h0l0,0s0,0,.06.06a8.12,8.12,0,0,1,2.55,5.12c.28,4.09-2.44,6.23-5.67,6.8a7.15,7.15,0,0,0-1.42.24c-.4.17-.84.9-1.14,1.33-1.11,1.59-1.85,2.79-3,4.35H35c1.77-3.41,3.84-7,5.77-10.46A5,5,0,0,0,41.54,81v-.15a1.93,1.93,0,0,0,0-.33.94.94,0,0,0,0-.16l0-.18h0v0c-.1-.41-.28-.86-.4-1.23a17,17,0,0,0-2.61-5.34A16.8,16.8,0,0,0,35.66,71l-.15-.12c-.44-.33-.88-.67-1.34-1s-1-.74-1.48-1.12a5.58,5.58,0,0,1,.45-.7,1.22,1.22,0,0,1,.15-.17,1.51,1.51,0,0,1,.22-.28,1.89,1.89,0,0,1,.2-.2,5.88,5.88,0,0,1,.64-.58,9,9,0,0,1,1.52-.93l.42-.2.43-.18c.26-.11.53-.2.81-.31.63-.22,1.3-.4,2-.57.87.88,1.63,1.79,2.41,2.7s1.41,2,2.27,2.89l.31.3.6.5.1.07a5.77,5.77,0,0,0,.55.35l.64.35.16.08.76.33a11.31,11.31,0,0,0,5.34,1,5.11,5.11,0,0,0,2.94-1.71,7.66,7.66,0,0,0,.73-.91l0,0a4.18,4.18,0,0,0,.31-.52,4.35,4.35,0,0,0,.27-.52c.73-1.78-.3-3.74-1-5C55.78,64.28,55.73,64.21,56.1,64.3ZM53.32,97.78c-.85-1.21-1.74-2.35-2.6-3.55.62-.76,1.12-1.65,1.75-2.41C52.64,93.89,53,96,53.32,97.78ZM40.63,52.1l3.13.85a5.06,5.06,0,0,0,1.84.71,5.26,5.26,0,0,0,2.08,0s-.75,8.17-2.17,8.7a10.11,10.11,0,0,1-1.17.34l-.46.11c-.61.14-1.26.26-1.81.34a1.87,1.87,0,0,1-.3,0h-.14c-.43.08-.74.11-.83.12l0,0V62Zm21.11-3.27c-.27,4-3.32,7.09-7.81,6.28-.7-.12-2.07-.73-2,.43,0,.66.75.68,1.42.8-.38,1.52-.94,3.48-1.37,5.11a5.1,5.1,0,0,0-.39,1.81c.19.74,1.39.5,2.22.65a11.92,11.92,0,0,1,1.28,2,4.79,4.79,0,0,1,.67,2.65,1.44,1.44,0,0,1-.11.43v0a1.36,1.36,0,0,1-.09.23,1.58,1.58,0,0,1-.21.38.35.35,0,0,1-.07.12.68.68,0,0,1-.13.18,4.7,4.7,0,0,1-.45.55l-.24.25-.25.24-.28.23h0a3.48,3.48,0,0,1-.39.27.69.69,0,0,1-.17.11c-1.35.75-3.57.05-4.92-.42L48.08,71H48l-.7-.28a7.12,7.12,0,0,1-1.17-.59l-.34-.24a3.47,3.47,0,0,1-.46-.4,30.63,30.63,0,0,1-2-2.64c-.36-.45-.73-.87-1.09-1.28a5.33,5.33,0,0,1-1-1.27c2-.58,4.57-.37,5.48-2.1a20.7,20.7,0,0,0,1.52-5.86,9.39,9.39,0,0,0,.33-2.13c-.1-.77-1.67-.75-2.46-1s-1.77-.63-2-1.37a2,2,0,0,1,.32-1.75c.72-.57,1.84.23,2.56.15s1.07-.71,1.51-1.14c.91-.91,1.81-1.83,2.67-2.78.26-.28.51-.56.76-.85l.55-.63a.72.72,0,0,0,.11-.15c.23-.26.47-.53.68-.81s.66-.8,1-1.22.63-.86.94-1.3l0-.07c.5-.71,1-1.45,1.42-2.2l.22-.36.38.32a1.89,1.89,0,0,1,.2.2l.21.2a6.43,6.43,0,0,1,1,1.33A4.37,4.37,0,0,0,58,41a3.86,3.86,0,0,0-.45.17h0a4.53,4.53,0,0,0-.54.27,3.45,3.45,0,0,0-.53.39,1.92,1.92,0,0,0-.36.34.94.94,0,0,0-.18.21c-.06.07-.11.16-.17.23A4.31,4.31,0,0,0,56.1,47a11.4,11.4,0,0,0,1.67,1.47c-.49.53-.52,1.53.33,1.52.47,0,.64-.43.85-.76s.55-.72.48-1.19-.61-.63-1-.81h0a.32.32,0,0,1-.13-.07,2.26,2.26,0,0,1-.28-.21,2.1,2.1,0,0,1-.28-.25,1.48,1.48,0,0,1-.25-.25l0,0-.14-.18a2.32,2.32,0,0,1-.31-.46,2,2,0,0,1-.14-.25,3.24,3.24,0,0,1-.19-.52,2.89,2.89,0,0,1,0-.29,1.94,1.94,0,0,1,0-.72,2.22,2.22,0,0,1,.14-.44c.25-.58,1.86-1.85,2.88-1.33.3.17.55.78.72,1.09A10.05,10.05,0,0,1,61.74,48.83ZM41.49,34c3.91-1.87,11-1.9,14.9,0,.41.21.86.45,1.3.73l.34.23a3.33,3.33,0,0,1,.32.24,3.92,3.92,0,0,1,.32.25l.3.27.29.28a3.61,3.61,0,0,1,.25.3,4.08,4.08,0,0,1,.25.33l.17.26a.94.94,0,0,1,0,.09,1.48,1.48,0,0,1,.15.31c0,.11.09.23.12.33a2.05,2.05,0,0,1,.07.34,2.64,2.64,0,0,1,0,.28.34.34,0,0,1,0,.1,2.11,2.11,0,0,1,0,.35,1.49,1.49,0,0,1,0,.21,0,0,0,0,0,0,0,1.29,1.29,0,0,1-.06.25,1.82,1.82,0,0,1-.12.35l0,0a3.26,3.26,0,0,1-.18.38L59,39l-1.4-1.54c.53-.41.63-1.65-.29-1.6-.54,0-.93,1.08-1.27,1.64s-.73,1.19-1.1,1.76a1.7,1.7,0,0,1-.1.14c-.21.35-.44.67-.67,1s-.52.74-.79,1.11l0,0-.57.77c-.19.26-.38.5-.59.75-.33.42-.67.82-1,1.23l-.19.23s-.06.06-.1.09c-.27.34-.56.66-.86,1l0,0a1.42,1.42,0,0,0-.12.13l-.52.55c-.34.37-.71.75-1.1,1.13-.16.17-.41.46-.67.73h0l0,0s0,0-.06.07l-.22.21a1.74,1.74,0,0,1-.4.32.44.44,0,0,1-.17.06h-.06c-.25,0-.6-.2-.89-.24-2.25-.35-3.44,1.23-3,3.5a7.88,7.88,0,0,1-5.25-4.59,6.59,6.59,0,0,1-.3-.73c-.07-.18-.15-.38-.21-.59l0-.09a3.76,3.76,0,0,1-.13-.48,2.41,2.41,0,0,1-.12-.48.65.65,0,0,1,0-.2.88.88,0,0,1,0-.17,2.33,2.33,0,0,1-.08-.36c0-.29-.08-.59-.1-.89a10,10,0,0,1,0-1.23v-.11a.66.66,0,0,1,0-.14,3.88,3.88,0,0,1,0-.48.49.49,0,0,1,0-.12c0-.18,0-.36.06-.53s0-.27.07-.4,0-.11,0-.16,0-.21.07-.33.13-.49.21-.74A9,9,0,0,1,41.49,34ZM20.21,86.9a10.21,10.21,0,0,1-3.31-1,4.23,4.23,0,0,1-1.76-3.41,5.82,5.82,0,0,1,.38-1.6c.16-.46.53-1.1.39-1.51s-1.46-.8-1.86-1a4.26,4.26,0,0,1-2.5-3.73A7.68,7.68,0,0,1,12.78,70a11.22,11.22,0,0,1,2-2.7,8.43,8.43,0,0,1,3-1.7l1.41-.47.74-.26.72-.28a5.25,5.25,0,0,0,.78-.41c.19-.12.38-.26.56-.39s.36-.29.52-.44.37-.35.54-.53l.11-.12,0,0s0,0,0-.06a13.32,13.32,0,0,0,1-1.38,9.18,9.18,0,0,0,.46-.82c.13-.25.25-.5.37-.77s.32-.75.48-1.15c0,0,0,0,0,0,.14-.38.27-.78.39-1.17l0-.13c.1-.3.17-.6.25-.9s.23-.92.33-1.4.19-.94.27-1.43.13-.75.18-1.12.12-.76.17-1.14c.09-.73.18-1.46.25-2.19.05-.43.09-.84.13-1.27s.09-1.13.14-1.69c0-.26.05-.52.07-.79.06-.67.14-1.32.21-2,0-.13,0-.25,0-.38.05-.38.1-.78.16-1.16s.11-.75.18-1.12a28,28,0,0,1,1.37-4.73,6.86,6.86,0,0,1,2.51-3.6,8.12,8.12,0,0,1,4.64-1.52.37.37,0,0,1,.15,0,.86.86,0,0,1,.17,0,1.66,1.66,0,0,1,.31.12l.22.13.22.19a1.53,1.53,0,0,1,.18.18,4.81,4.81,0,0,1,.53.82c.25.46.46.95.73,1.35a7.13,7.13,0,0,1-.91.84l-.53.53-.5.57c-.18.23-.35.46-.51.7s-.27.38-.39.59-.26.47-.38.71-.25.54-.37.81-.18.5-.26.76-.16.57-.23.87-.09.41-.13.63-.08.51-.11.77c0,.41-.06.83-.06,1.26v0a5.52,5.52,0,0,0,0,.58,13.59,13.59,0,0,0,.16,1.59.7.7,0,0,0,0,.12,6.8,6.8,0,0,0,.18.92,0,0,0,0,1,0,0,8.52,8.52,0,0,0,.26.9A9.35,9.35,0,0,0,36.17,48c.1.24.21.46.33.69a10,10,0,0,0,1.18,1.74c.15.17.29.34.45.49l.1.11a7.31,7.31,0,0,0,.66.6c.26.21.92.51,1,.76a9,9,0,0,1,0,1.28c.09,3.17.24,6.5.34,9.46-2.87.68-5.31,1.27-7,2.88a7.23,7.23,0,0,0-.61.63c-.17.2-.34.4-.48.6s-.21.3-.31.46-.2.29-.3.45c-.29.47-.55.94-.8,1.45-.42.84-.8,1.75-1.19,2.66-2,4.56-3.9,9.53-5.63,14.24A6.21,6.21,0,0,1,20.21,86.9Zm-1.58,21.85h0c.11-.58.24-1.16.35-1.74a0,0,0,0,0,0,0,103,103,0,0,1,2.88-10.75q2.13-6.45,4.49-12.6c.26-.66.52-1.35.79-2,.43-1.09.86-2.17,1.3-3.23q1.76-4.32,3.68-8.51l.43.31c.2.15.42.29.62.45.62.44,1.23.88,1.83,1.37l.59.5a17.52,17.52,0,0,1,1.73,1.72,14.51,14.51,0,0,1,2.36,4.59,6.11,6.11,0,0,1,.57,1.8,6.2,6.2,0,0,1-.7,1.33C36.3,87.81,33.16,93.41,30,99.2a23.61,23.61,0,0,0-1.47,2.7,30.27,30.27,0,0,0-.71,3.17c-.25,1.11-.5,2.2-.73,3.3a.19.19,0,0,0,0,.08c-.11.43-.21.87-.29,1.3a1,1,0,0,0-.06.23h0v0c0,.08,0,.16-.05.23a1.64,1.64,0,0,0-.07.28,1.92,1.92,0,0,1-1.08.7,7.32,7.32,0,0,1-3.24.19,7.2,7.2,0,0,1-3.13-1.06h0a3,3,0,0,1-.38-.3,3.3,3.3,0,0,1-.27-.3C18.49,109.4,18.56,109.08,18.63,108.75Zm4.55,17a5.43,5.43,0,0,0-.27,1.71c.1.42.62.37.84.61a7.55,7.55,0,0,1,.76,1.71,12.48,12.48,0,0,1,.62,1.89,4.47,4.47,0,0,1,0,.75c0,.07,0,.16,0,.24l0,.18c0,.07,0,.15-.06.23a.7.7,0,0,1-.06.19v0a.6.6,0,0,1-.07.14c-.53.8-2.2.55-3.55.52a13.38,13.38,0,0,1-3-.32,2.47,2.47,0,0,1,.45-1.07,1.07,1.07,0,0,1,.25-.16c1-.52,3.24.5,3.22-.82,0-1.13-2.46-.69-3.36-.56a3.2,3.2,0,0,0-2-.11l-.28,0-.12,0-.62.11a4.81,4.81,0,0,1-.64.07h-.1v-.08a2.66,2.66,0,0,0,0-.49,1.17,1.17,0,0,0-.05-.2.49.49,0,0,0-.08-.18v0a.38.38,0,0,0-.11-.11.42.42,0,0,0-.18-.11l-.11,0a.22.22,0,0,0-.12,0,.12.12,0,0,0-.08,0h-.08a.32.32,0,0,0-.15.06.42.42,0,0,0-.13.11.35.35,0,0,0-.11.13,1.42,1.42,0,0,0-.08.18,1.17,1.17,0,0,0-.06.2,7.09,7.09,0,0,0-.14,1c0,.17,0,.35-.06.52a1,1,0,0,1,0,.15h0c-.09.7-.14,1.45-.51,1.75a.71.71,0,0,1-.56.12,9,9,0,0,1-.37-2.88c0-.22,0-.5,0-.8,0-.13,0-.28,0-.41a6.17,6.17,0,0,1,.14-.79s0,0,0,0,0,0,0-.07a1.06,1.06,0,0,1,.06-.19l.07-.15a.46.46,0,0,1,.11-.16.05.05,0,0,1,0,0,.58.58,0,0,1,.1-.12.94.94,0,0,1,.19-.14.71.71,0,0,1,.25-.11,1.42,1.42,0,0,1,.31-.11h0l.43-.08A11.94,11.94,0,0,1,16,128c1,.05,3.06.71,2.84-.6-.16-1-2.27-.58-3.12-.76.71-5.25,1.44-10.34,2.36-15.25a.7.7,0,0,0,.16.13,9.56,9.56,0,0,0,5.1,1.38,7.35,7.35,0,0,0,2.46-.37l.29-.1C25.15,116.85,24.18,121.24,23.18,125.73Zm17.29,29.66-.31.16a5.92,5.92,0,0,1-.73.31c-.21.08-.42.15-.64.21-.38.12-.77.21-1.19.3l-.65.11c0-.21.1-.43.14-.64.13-.6.25-1.21.38-1.82.18-.83.34-1.67.55-2.49a4.9,4.9,0,0,1,.13-.55q.16-.69.36-1.35c.92,1.74,1.89,3.41,2.79,5.16A4.19,4.19,0,0,1,40.47,155.39Zm19.36,30.29-2.33-4.22c-4.66-8.47-9.3-17.06-14-25.62-.76-1.37-1.51-2.75-2.26-4.12l-.4-.71c-.12-.24-.25-.47-.39-.71-.26-.49-.53-1-.8-1.46-2-3.64-4-7.29-6-10.9-.33-.61-.68-1.2-1-1.81-.27-.44-.52-.89-.78-1.34l-.29-.51c-.15-.27-.3-.54-.44-.82s-.38-.69-.56-1c-.36-.68-.71-1.38-1-2.1-.18-.39-.34-.79-.51-1.18a44.46,44.46,0,0,1-2.18-7.9c-.13-.69-.2-1.49-.37-2.12a4,4,0,0,1-.23-.62,11.56,11.56,0,0,1,.41-2c.18-.79.36-1.56.53-2.35h0a1.21,1.21,0,0,1,.05-.18c.22-1,.46-2.08.69-3.12h0v0c.11-.44.2-.88.3-1.32.05-.18.08-.36.12-.53.19-.82.37-1.65.55-2.47.28-1.36.52-2.74.89-4a11.38,11.38,0,0,1,1.14-2c.18-.31.34-.63.52-.94s.21-.37.3-.56l.34-.6c.7-1.28,1.38-2.54,2.1-3.81,5,0,9.93-.07,14.94,0a79,79,0,0,1,7.29,10.65c.3.55.75,1.11,1.14,1.79a10.13,10.13,0,0,0,1.08,1.9,6.87,6.87,0,0,0,1.33.65c3.21,1.62,6.31,3.17,9.22,5a13.06,13.06,0,0,0,2.46,5.3c.44.5.93.83,1.28,1.32.48.67.81,2.14,1.85,2.14s1.85-1.42,1.84-2.6a4.42,4.42,0,0,0-.89-2.09c.09-.1.31.19.41.28a16.79,16.79,0,0,1,3.09,3.41c.65,1.06.79,2.4,1.42,3.4a3.55,3.55,0,0,0,2.17,1.52,7.49,7.49,0,0,0,.9,0c.55,0,1.13.28,1.65.1s.7-.86.86-1.57a7.77,7.77,0,0,1,1.74,1.47c1,1,2,2.1,2.88,3.26a9.27,9.27,0,0,1,.6.84.31.31,0,0,1,.07.09c.14.22.29.43.42.66s.31.54.44.83a11.85,11.85,0,0,1,1.27,5.44c0,.37-.05.76-.11,1.11s-.06.37-.1.55a5.23,5.23,0,0,1-.12.54,2.73,2.73,0,0,1-.14.51c-.05.16-.1.32-.16.47s-.14.39-.22.59-.15.32-.23.47a6.27,6.27,0,0,1-.37.68c-.1.16-.19.32-.29.45a4.83,4.83,0,0,1-.43.58,5.48,5.48,0,0,1-.55.64,4.89,4.89,0,0,1-.4.39s0,0-.06.05l-.43.36c-.15.12-.29.22-.44.32a6,6,0,0,1-.59.34,4.09,4.09,0,0,1-.47.23.58.58,0,0,1-.21.07v0h0l-.36.13a4.81,4.81,0,0,1-.54.16l-.1,0c-.29.07-.6.14-.93.2l-1.1.19h0l-1.49.24-.74.13c-3.78.73-8,1-12,1.46-.1-1.13-.24-2.26-.39-3.36-.06-.47-.13-.94-.2-1.4a2.5,2.5,0,0,1-.06-.38c-.09-.52-.18-1.05-.28-1.57,0-.28-.09-.55-.15-.81l-.11-.58c-.1-.44-.19-.89-.3-1.32,0-.22-.1-.45-.16-.66a6.19,6.19,0,0,0-.15-.65c-.16-.64-.33-1.29-.51-1.9a1.22,1.22,0,0,0,.51-.06h0l.32-.09a.64.64,0,0,1,.18-.06.15.15,0,0,1,.08,0l.1,0a1.49,1.49,0,0,1,.61-.06,9.49,9.49,0,0,1,1.7.81l3.46,1.56c.53.25,2.27,1.21,2.27,0,0-.78-1.84-1.28-2.56-1.61l-5.48-2.54-.72-.32-.71-.32c-4.46-2-9-4.07-13.2-6.05-.33-.86-.68-1.72-1-2.59-.26-.64-.51-1.3-.78-2h0c-.67-1.7-1.34-3.38-2-5.09.45-.6.86-1.11,1.47-1.89.12-.16.4-.44.68-.76a3.51,3.51,0,0,0,.42-.59,1.42,1.42,0,0,0,.15-.34l0-.15a.81.81,0,0,0,0-.22s0,0,0-.07a.67.67,0,0,0-.57-.42h-.06l-.17,0a.83.83,0,0,0-.34.19.5.5,0,0,0-.13.12,4.09,4.09,0,0,0-.43.52l0,0-1.72,2.2c-.31.39-.73.75-.76,1.23a7.53,7.53,0,0,0,.71,2.12c.79,2.05,1.75,4.38,2.47,6.2,3,7.51,5.92,15.09,8.91,22.68.18.48.36.95.55,1.42q.14.36.27.69c.09.23.18.46.26.68.35.89.7,1.77,1,2.64.13.34.26.66.4,1,1.82,4.67,3.65,9.34,5.46,14q3,7.53,5.83,14.92a55,55,0,0,0-7,2.74L65,188.63c-.36.16-.72.31-1.07.48l-1.75.78Zm3.61,12.81c-.5-.06-.84-.74-1.09-1.23a33.53,33.53,0,0,1-2.27-4.82c3.44-1.78,7.68-3.49,11.45-5.11,1.3-.56,2.61-1.25,3.88-1.66a3.27,3.27,0,0,1,1.56-.18c.49.11.69.8.9,1.36.57,1.48,1.24,3.26,1.61,4.54-2.39,1.26-5,2.44-7.86,3.69-1.92.87-4,1.81-6,2.65A6.07,6.07,0,0,1,63.44,198.49Zm3.45.19c4.18-1.85,8.39-3.69,12.5-5.63,1.35,3.33,2.64,6.73,3.92,10.12C79.6,205,76,206.8,72.24,208.57,70.49,205.24,68.64,202,66.89,198.68ZM73,209.8c3.62-1.77,7.2-3.58,10.88-5.3.3.65.54,1.39.9,2.31a6.67,6.67,0,0,0,.94,2.14,6.32,6.32,0,0,0,2.13.61,9.38,9.38,0,0,0,3.08.34,7.44,7.44,0,0,0-2.65,6c-2.43,1.29-4.85,2.6-7.34,3.83-1.11-1.63-2.33-3.16-4.54-3.68C75.24,214,74.06,211.92,73,209.8Zm25.4,5A30.11,30.11,0,0,1,94,217c-4.43,2.08-9.15,4.41-13.67,6.24-.94-1.69-2-3.49-2.79-5.2a6.43,6.43,0,0,1,1.56,1.6c.36.48.83,1.64,1.47,1.71a2.88,2.88,0,0,0,1.22-.48c2-1,3.67-1.93,5.69-3,.58-.31,1.94-.76,2.12-1.38a5.62,5.62,0,0,0,0-1.23c.15-2.4,1.46-3.68,2.83-4.92a9,9,0,0,1,1.38-1.23,8.94,8.94,0,0,1,1.42-.32,11.85,11.85,0,0,1,6.62.75C100.77,211.41,100.07,213.54,98.35,214.77Z"/><path class="cls-12" d="M101.85,209.61c-1.08,1.8-1.78,3.93-3.5,5.16A30.11,30.11,0,0,1,94,217c-4.43,2.08-9.15,4.41-13.67,6.24-.94-1.69-2-3.49-2.79-5.2a6.43,6.43,0,0,1,1.56,1.6c.36.48.83,1.64,1.47,1.71a2.88,2.88,0,0,0,1.22-.48c2-1,3.67-1.93,5.69-3,.58-.31,1.94-.76,2.12-1.38a5.62,5.62,0,0,0,0-1.23c.15-2.4,1.46-3.68,2.83-4.92a9,9,0,0,1,1.38-1.23,8.94,8.94,0,0,1,1.42-.32A11.85,11.85,0,0,1,101.85,209.61Z"/><path class="cls-15" d="M79.48,191.39c-2.39,1.26-5,2.44-7.86,3.69-1.92.87-4,1.81-6,2.65a6.07,6.07,0,0,1-2.17.76c-.5-.06-.84-.74-1.09-1.23a33.53,33.53,0,0,1-2.27-4.82c3.44-1.78,7.68-3.49,11.45-5.11,1.3-.56,2.61-1.25,3.88-1.66a3.27,3.27,0,0,1,1.56-.18c.49.11.69.8.9,1.36C78.44,188.33,79.11,190.11,79.48,191.39Z"/><path class="cls-12" d="M41.3,154.79A8.67,8.67,0,0,1,37,156.48c.51-2.3.92-4.68,1.56-6.85C39.43,151.37,40.4,153,41.3,154.79Z"/><path class="cls-15" d="M69.69,150.81a7,7,0,0,1-3.65.29c-1.49-4.42-2.49-9.35-3.59-14.15,1.22-.28,2.79-1,4.17-.76.82.18,1.18,2.15,1.41,3.08A62.58,62.58,0,0,1,69.69,150.81Z"/><path class="cls-15" d="M63.92,149.53c-1.48-3.61-2.88-7.27-4.32-10.93.58-.07,1.12-.18,1.67-.27.06,0,0,.07,0,.14.82,3.38,1.71,7.16,2.61,10.45C64,149.07,64.11,149.4,63.92,149.53Z"/><path class="cls-1" d="M40.26,80.61a6.2,6.2,0,0,1-.7,1.33C36.3,87.81,33.16,93.41,30,99.2a23.61,23.61,0,0,0-1.47,2.7,30.27,30.27,0,0,0-.71,3.17c-.25,1.11-.5,2.2-.73,3.3a.19.19,0,0,0,0,.08c-.15.6-.28,1.19-.4,1.79a1.64,1.64,0,0,0-.07.28,1.92,1.92,0,0,1-1.08.7,7.32,7.32,0,0,1-3.24.19,7.2,7.2,0,0,1-3.13-1.06h0a3,3,0,0,1-.38-.3,3.3,3.3,0,0,1-.27-.3c.06-.34.13-.66.2-1h0c.11-.58.24-1.16.35-1.74a0,0,0,0,0,0,0,103,103,0,0,1,2.88-10.75A253.43,253.43,0,0,1,32.13,69.87a27.55,27.55,0,0,1,5.2,4.35,14.51,14.51,0,0,1,2.36,4.59A6.11,6.11,0,0,1,40.26,80.61Z"/></g></g></svg>